<svg width="252" height="250" viewBox="0 0 252 250" fill="none" xmlns="http://www.w3.org/2000/svg">
<path d="M102.622 18.1953H94.1271C94.1271 18.1953 91.1462 39.6516 83.0547 48.6816C75.388 57.2404 61.0369 54.8893 61.0369 54.8893L61.0233 54.933C55.4727 53.4207 49.138 53.7527 44.8266 54.892C38.0602 56.6776 33.1736 59.7855 33.1736 59.7855C33.1736 59.7855 22.7323 66.3838 22.9809 78.9754C23.1722 88.7458 30.5042 100.377 30.4468 101.21C29.802 110.535 29.0807 110.217 30.0547 113.54C32.4167 121.6 65.8716 118.279 66.4673 114.582C67.0069 111.228 65.4522 105.62 66.2323 98.0792C67.4618 86.1939 69.9072 81.959 72.6886 74.6256C88.0506 73.3797 97.9782 64.6994 101.067 50.7609C104.254 36.3797 102.622 18.1953 102.622 18.1953Z" fill="white"/>
<path d="M46.4522 118.817C38.4549 118.817 30.8907 117.472 29.7637 113.626C29.1216 111.44 29.2022 110.731 29.5041 108.104C29.6762 106.601 29.9139 104.529 30.1448 101.192C30.1229 101.014 29.6421 100.055 29.1325 99.0399C27.0833 94.9593 22.8238 86.4716 22.6762 78.9839C22.4276 66.3664 32.9057 59.5973 33.0109 59.5304C33.0587 59.4989 38.015 56.3773 44.75 54.6C48.6926 53.559 54.9959 53.0194 60.9481 54.6C60.9923 54.5865 61.039 54.5832 61.0847 54.5905C61.2213 54.6137 75.3634 56.8104 82.8279 48.4798C90.7664 39.6219 93.7964 18.3678 93.8265 18.1519C93.8364 18.0793 93.8723 18.0127 93.9276 17.9644C93.9828 17.9162 94.0537 17.8896 94.127 17.8896H102.622C102.697 17.8896 102.769 17.9176 102.825 17.9681C102.881 18.0186 102.916 18.088 102.923 18.1629C102.94 18.3446 104.525 36.559 101.363 50.8213C98.2076 65.0618 88.1038 73.6096 72.9044 74.9074C72.4413 76.1219 71.9877 77.253 71.5492 78.3473C69.4016 83.7066 67.5451 88.335 66.5341 98.1055C66.0943 102.358 66.3975 106.019 66.653 108.962C66.8497 111.295 67.0055 113.138 66.7664 114.625C66.4016 116.892 57.3279 118.278 51.3169 118.656C49.7118 118.763 48.0724 118.817 46.4522 118.817ZM52.9699 54.2257C49.8279 54.2257 46.959 54.6451 44.9098 55.182C38.2705 56.9347 33.3893 60.0085 33.3415 60.0385C33.2377 60.1041 23.0478 66.6997 23.2896 78.9675C23.4344 86.3131 27.653 94.723 29.6803 98.764C30.5123 100.421 30.7732 100.958 30.7555 101.223C30.5232 104.575 30.2855 106.649 30.112 108.163C29.8156 110.758 29.7445 111.375 30.3511 113.446C31.6066 117.734 42.4126 118.604 51.2842 118.047C59.9385 117.5 65.9699 115.787 66.1749 114.525C66.403 113.112 66.2418 111.212 66.056 109.011C65.8046 106.043 65.4932 102.349 65.9385 98.0399C66.959 88.1847 68.8292 83.5208 70.9932 78.1192C71.4535 76.973 71.929 75.7885 72.4126 74.5112C72.4329 74.4574 72.468 74.4105 72.514 74.3759C72.5599 74.3413 72.6148 74.3205 72.6721 74.3159C87.6899 73.0973 97.6721 64.7052 100.779 50.682C103.706 37.473 102.536 20.8268 102.35 18.4866H94.3975C94.0205 20.973 90.8648 40.4183 83.2882 48.8719C76.0341 56.9661 62.7541 55.4197 61.1571 55.1998C61.094 55.228 61.0229 55.2334 60.9563 55.2148C58.2992 54.5085 55.541 54.2257 52.9699 54.2257Z" fill="#090525"/>
<path d="M208.522 235.158H60.2348C55.6296 235.158 52.1214 230.944 52.8577 226.298L84.7498 25.2157C85.3359 21.5176 88.4602 18.7949 92.1269 18.7949H240.412C245.018 18.7949 248.527 23.0094 247.789 27.6542L215.899 228.742C215.313 232.44 212.187 235.158 208.522 235.158Z" fill="white"/>
<path d="M208.522 235.462H60.2349C59.1193 235.459 58.0174 235.215 57.0055 234.745C55.9936 234.275 55.0959 233.591 54.3743 232.74C53.6196 231.854 53.0664 230.815 52.7527 229.695C52.439 228.574 52.3723 227.399 52.5573 226.25L84.4494 25.1678C85.0628 21.3017 88.2909 18.4971 92.1256 18.4971H240.412C241.528 18.4993 242.63 18.7438 243.643 19.2136C244.655 19.6835 245.553 20.3675 246.275 21.2184C247.029 22.1042 247.582 23.1431 247.895 24.2635C248.209 25.3838 248.275 26.5589 248.09 27.7075L216.198 228.789C215.586 232.65 212.356 235.462 208.522 235.462ZM92.1284 19.1036C88.5942 19.1036 85.6174 21.6993 85.0518 25.2635L53.157 226.345C52.9858 227.407 53.0472 228.494 53.3371 229.53C53.627 230.566 54.1384 231.527 54.836 232.345C55.5009 233.129 56.3279 233.759 57.26 234.192C58.1922 234.625 59.2071 234.851 60.2349 234.854H208.522C212.056 234.854 215.033 232.258 215.598 228.695L247.49 27.6118C247.661 26.5495 247.599 25.4628 247.308 24.4269C247.017 23.391 246.505 22.4305 245.807 21.6118C245.142 20.8279 244.315 20.1977 243.383 19.7646C242.45 19.3316 241.435 19.1061 240.407 19.1036H92.1284Z" fill="#090525"/>
<path d="M203.81 234.636H55.5219C50.918 234.636 47.4085 230.429 48.1448 225.791L80.0369 25.0577C80.623 21.3692 83.7486 18.6533 87.4139 18.6533H235.698C240.303 18.6533 243.811 22.861 243.075 27.4976L211.186 228.231C210.6 231.924 207.475 234.636 203.81 234.636Z" fill="white"/>
<path d="M203.81 234.94H55.5217C54.4052 234.937 53.3025 234.693 52.2899 234.222C51.2773 233.752 50.3789 233.067 49.6569 232.216C48.9042 231.332 48.3524 230.296 48.0396 229.178C47.7269 228.061 47.6606 226.889 47.8454 225.743L79.7375 25.0094C80.3509 21.1502 83.579 18.3496 87.4137 18.3496H235.698C236.816 18.3502 237.92 18.5941 238.935 19.0642C239.949 19.5344 240.849 20.2196 241.572 21.0723C242.325 21.9556 242.877 22.9919 243.189 24.1095C243.502 25.2271 243.569 26.3993 243.384 27.545L211.486 228.279C210.873 232.138 207.645 234.94 203.81 234.94ZM87.4165 18.9562C83.8823 18.9562 80.9055 21.5422 80.34 25.1037L48.4452 225.839C48.2743 226.898 48.3354 227.981 48.6243 229.014C48.9133 230.047 49.4231 231.006 50.1187 231.822C50.7839 232.607 51.6115 233.237 52.5444 233.671C53.4772 234.104 54.4931 234.33 55.5217 234.332H203.81C207.344 234.332 210.321 231.746 210.886 228.184L242.778 27.4493C242.949 26.3903 242.888 25.3068 242.599 24.2737C242.31 23.2407 241.8 22.2826 241.105 21.4657C240.439 20.6807 239.611 20.0497 238.677 19.6163C237.744 19.183 236.727 18.9578 235.698 18.9562H87.4165Z" fill="#090525"/>
<path d="M179.564 37.2955H136.579C129.709 37.2955 124.489 31.0017 125.634 24.0987L126.638 18.0496C126.684 17.7556 126.833 17.4875 127.058 17.2928C127.283 17.098 127.57 16.9891 127.867 16.9854H194.076C194.26 16.9883 194.441 17.031 194.606 17.1106C194.771 17.1902 194.918 17.3047 195.035 17.4463C195.151 17.5878 195.236 17.7531 195.283 17.9306C195.33 18.1081 195.338 18.2936 195.306 18.4744L194.304 24.6056C193.084 31.9321 186.856 37.2955 179.564 37.2955Z" fill="white"/>
<path d="M179.564 37.5989H136.579C134.935 37.5964 133.31 37.2352 131.819 36.5403C130.329 35.8454 129.008 34.8337 127.948 33.5757C126.845 32.2729 126.04 30.745 125.588 29.0987C125.137 27.4524 125.05 25.7274 125.335 24.0442L126.339 17.9937C126.396 17.6277 126.582 17.2941 126.863 17.0527C127.145 16.8114 127.503 16.6781 127.873 16.6768H194.082C194.307 16.6766 194.529 16.7254 194.733 16.8197C194.936 16.9141 195.117 17.0518 195.262 17.2232C195.412 17.4 195.521 17.6071 195.582 17.8303C195.644 18.0534 195.656 18.2873 195.618 18.5156L194.6 24.6467C193.355 32.1549 187.031 37.5989 179.564 37.5989ZM127.873 17.2888C127.646 17.291 127.428 17.3736 127.256 17.522C127.085 17.6704 126.972 17.8748 126.937 18.0989L125.933 24.1494C125.665 25.7449 125.747 27.3797 126.175 28.94C126.603 30.5002 127.366 31.9484 128.411 33.1836C129.414 34.3743 130.664 35.332 132.075 35.9898C133.485 36.6476 135.023 36.9898 136.579 36.9923H179.564C186.734 36.9923 192.805 31.7615 194.001 24.5606L195.018 18.4309C195.042 18.2893 195.035 18.1443 194.997 18.0058C194.959 17.8673 194.892 17.7387 194.799 17.6289C194.711 17.5245 194.601 17.4405 194.477 17.3827C194.354 17.3249 194.219 17.2947 194.082 17.2942L127.873 17.2888Z" fill="#090525"/>
<path d="M150.628 30.2282H168.985C169.32 30.2373 169.647 30.1243 169.905 29.9101C170.163 29.6959 170.334 29.3953 170.386 29.0642L172.901 12.705C173.91 6.19539 168.993 0.297852 162.55 0.297852C157.397 0.297852 153.009 4.11479 152.201 9.31424L149.222 28.6039C149.188 28.8062 149.199 29.0136 149.255 29.2112C149.31 29.4088 149.409 29.5918 149.543 29.747C149.677 29.9021 149.844 30.0257 150.032 30.1089C150.219 30.1921 150.423 30.2328 150.628 30.2282ZM158.142 10.3812L158.162 10.2582C158.318 9.24705 158.828 8.32419 159.602 7.65469C160.375 6.98519 161.362 6.61271 162.385 6.60386C165.033 6.60386 167.046 9.03829 166.606 11.7104L166.587 11.832C166.431 12.8432 165.921 13.7661 165.148 14.4357C164.374 15.1054 163.388 15.4783 162.365 15.4877C159.713 15.4877 157.699 13.0533 158.138 10.3826L158.142 10.3812Z" fill="white"/>
<path d="M168.985 30.5314H150.628C150.377 30.5332 150.129 30.4805 149.901 30.3769C149.673 30.2734 149.469 30.1215 149.306 29.9317C149.147 29.7434 149.031 29.5229 148.965 29.2854C148.9 29.0479 148.887 28.799 148.927 28.556L151.9 9.28005C152.736 3.903 157.215 0 162.556 0C164.098 0.00396773 165.622 0.341942 167.021 0.990691C168.421 1.63944 169.663 2.58358 170.663 3.7582C171.712 4.98545 172.482 6.42534 172.921 7.97877C173.36 9.5322 173.457 11.1623 173.206 12.7568L170.691 29.1107C170.628 29.5147 170.421 29.8821 170.106 30.1437C169.792 30.4053 169.393 30.5432 168.985 30.5314ZM162.55 0.613387C157.516 0.613387 153.289 4.30191 152.501 9.37978L149.527 28.6557C149.499 28.8123 149.506 28.9731 149.548 29.1266C149.59 29.28 149.664 29.4225 149.767 29.5437C149.874 29.6666 150.007 29.7648 150.155 29.8315C150.304 29.8983 150.465 29.932 150.628 29.9303H168.985C169.247 29.9387 169.503 29.8512 169.706 29.6843C169.909 29.5174 170.044 29.2824 170.086 29.0232L172.601 12.6708C172.838 11.1629 172.746 9.62138 172.331 8.15239C171.916 6.68339 171.188 5.32176 170.196 4.1612C169.254 3.05145 168.083 2.15903 166.763 1.54539C165.443 0.93174 164.006 0.611447 162.55 0.606558V0.613387ZM162.36 15.7978C161.7 15.7965 161.048 15.6513 160.45 15.3725C159.852 15.0936 159.321 14.6877 158.896 14.1831C158.451 13.6576 158.126 13.0414 157.943 12.3775C157.76 11.7136 157.725 11.0179 157.838 10.3388L157.857 10.2158C158.023 9.13255 158.569 8.14376 159.398 7.42729C160.227 6.71083 161.285 6.31372 162.381 6.30738C163.04 6.30893 163.692 6.45405 164.29 6.73265C164.888 7.01126 165.418 7.41668 165.844 7.92077C166.289 8.44644 166.614 9.06276 166.797 9.72688C166.98 10.391 167.016 11.087 166.903 11.7664L166.882 11.888C166.716 12.9702 166.169 13.9576 165.341 14.673C164.512 15.3884 163.455 15.7848 162.36 15.791V15.7978ZM158.437 10.4372C158.338 11.0294 158.369 11.6361 158.528 12.2151C158.687 12.7941 158.971 13.3314 159.359 13.7896C159.728 14.2277 160.188 14.58 160.707 14.8218C161.226 15.0637 161.792 15.1893 162.364 15.1899C163.316 15.1833 164.234 14.8371 164.954 14.2138C165.673 13.5904 166.146 12.7308 166.288 11.7896L166.307 11.668C166.406 11.0756 166.375 10.4687 166.215 9.88949C166.056 9.31031 165.773 8.77276 165.385 8.31421C165.016 7.87635 164.556 7.52423 164.037 7.28239C163.518 7.04056 162.952 6.91481 162.379 6.91393C161.428 6.92055 160.509 7.26669 159.79 7.89004C159.071 8.5134 158.598 9.37303 158.456 10.3142L158.437 10.4372Z" fill="#090525"/>
<path d="M164.637 158.223H158.42C158.027 158.222 157.639 158.137 157.282 157.971C156.925 157.806 156.608 157.566 156.353 157.267C156.09 156.957 155.896 156.594 155.786 156.203C155.676 155.811 155.653 155.4 155.717 154.999L168.568 73.6163C168.663 72.9667 168.988 72.3729 169.485 71.9429C169.981 71.5129 170.615 71.2753 171.271 71.2734H177.491C177.884 71.274 178.273 71.3597 178.63 71.5248C178.987 71.6899 179.303 71.9304 179.558 72.2297C179.822 72.5392 180.015 72.9023 180.125 73.2938C180.235 73.6853 180.259 74.0959 180.195 74.4975L167.341 155.875C167.247 156.525 166.922 157.12 166.426 157.551C165.93 157.982 165.295 158.221 164.637 158.223ZM169.168 73.7092L156.316 155.092C156.266 155.406 156.285 155.728 156.371 156.034C156.457 156.341 156.609 156.625 156.815 156.868C157.013 157.101 157.259 157.288 157.536 157.416C157.813 157.545 158.115 157.612 158.42 157.612H164.637C165.149 157.61 165.643 157.424 166.029 157.088C166.415 156.752 166.668 156.289 166.741 155.783L179.595 74.4005C179.645 74.086 179.627 73.7644 179.54 73.4579C179.454 73.1513 179.303 72.867 179.097 72.6245C178.899 72.3917 178.653 72.2046 178.376 72.0761C178.099 71.9475 177.797 71.8806 177.491 71.88H171.271C170.76 71.8825 170.266 72.0685 169.88 72.4042C169.494 72.7399 169.241 73.203 169.168 73.7092Z" fill="#090525"/>
<path d="M146.53 158.223H140.31C139.917 158.222 139.529 158.136 139.173 157.971C138.817 157.806 138.5 157.566 138.246 157.267C137.982 156.958 137.788 156.597 137.678 156.206C137.567 155.816 137.542 155.407 137.605 155.006L146.933 94.514L147.232 94.5591L146.933 94.514C147.026 93.862 147.35 93.2652 147.847 92.833C148.343 92.4007 148.979 92.1618 149.638 92.1602H155.861C156.253 92.161 156.641 92.2469 156.997 92.412C157.353 92.5771 157.669 92.8174 157.923 93.1164C158.188 93.4245 158.382 93.7861 158.493 94.1764C158.603 94.5668 158.628 94.9765 158.565 95.3774L149.235 155.875C149.141 156.525 148.816 157.121 148.319 157.552C147.823 157.983 147.188 158.221 146.53 158.223ZM149.632 92.7694C149.119 92.7717 148.624 92.9586 148.238 93.296C147.851 93.6334 147.599 94.0988 147.527 94.6069L138.199 155.1C138.15 155.415 138.169 155.737 138.256 156.043C138.343 156.35 138.495 156.634 138.702 156.876C138.9 157.108 139.145 157.294 139.422 157.423C139.699 157.551 140 157.617 140.305 157.618H146.524C147.037 157.616 147.532 157.429 147.919 157.091C148.305 156.754 148.557 156.288 148.628 155.78L157.966 95.2845C158.015 94.9697 157.996 94.648 157.909 94.3414C157.822 94.0348 157.67 93.7506 157.463 93.5085C157.265 93.2766 157.02 93.0903 156.743 92.9622C156.466 92.8342 156.165 92.7675 155.861 92.7667L149.632 92.7694Z" fill="#090525"/>
<path d="M128.431 158.223H122.211C121.819 158.222 121.431 158.136 121.075 157.971C120.718 157.806 120.402 157.566 120.147 157.267C119.884 156.958 119.69 156.596 119.579 156.205C119.469 155.814 119.445 155.404 119.508 155.003L126.475 110.178C126.567 109.526 126.891 108.93 127.388 108.498C127.885 108.066 128.521 107.829 129.179 107.828H135.401C135.794 107.829 136.182 107.914 136.538 108.08C136.895 108.245 137.211 108.485 137.466 108.784C137.729 109.093 137.923 109.455 138.034 109.846C138.145 110.237 138.169 110.647 138.106 111.048L131.139 155.873C131.045 156.525 130.72 157.121 130.222 157.552C129.725 157.983 129.09 158.221 128.431 158.223ZM127.065 110.272L120.098 155.097C120.048 155.412 120.067 155.734 120.154 156.04C120.24 156.347 120.392 156.631 120.599 156.873C120.797 157.106 121.042 157.292 121.319 157.421C121.596 157.549 121.897 157.616 122.202 157.616H128.422C128.934 157.614 129.429 157.428 129.815 157.091C130.202 156.754 130.454 156.289 130.526 155.782L137.493 110.955C137.543 110.641 137.524 110.319 137.437 110.012C137.351 109.706 137.199 109.422 136.993 109.179C136.795 108.947 136.549 108.76 136.272 108.632C135.996 108.503 135.694 108.437 135.389 108.436H129.166C128.655 108.44 128.162 108.628 127.777 108.965C127.392 109.302 127.141 109.766 127.069 110.272H127.065Z" fill="#090525"/>
<path d="M110.336 158.222H104.117C103.725 158.222 103.336 158.136 102.98 157.971C102.623 157.806 102.307 157.565 102.052 157.266C101.788 156.957 101.594 156.594 101.484 156.203C101.374 155.812 101.35 155.401 101.414 155L106.004 125.841C106.099 125.192 106.425 124.598 106.921 124.167C107.417 123.737 108.051 123.499 108.708 123.497H114.933C115.326 123.497 115.714 123.583 116.071 123.748C116.428 123.913 116.744 124.154 116.999 124.453C117.263 124.762 117.456 125.125 117.567 125.516C117.677 125.908 117.701 126.318 117.637 126.72L113.04 155.874C112.945 156.525 112.62 157.12 112.124 157.551C111.628 157.982 110.993 158.22 110.336 158.222ZM108.708 124.102C108.196 124.105 107.702 124.291 107.316 124.628C106.929 124.964 106.677 125.427 106.604 125.934L102.014 155.093C101.964 155.407 101.983 155.729 102.069 156.035C102.156 156.342 102.307 156.626 102.514 156.869C102.711 157.102 102.957 157.289 103.234 157.417C103.511 157.546 103.812 157.613 104.117 157.613H110.336C110.848 157.611 111.342 157.424 111.728 157.088C112.114 156.752 112.367 156.289 112.44 155.783L117.033 126.624C117.083 126.31 117.064 125.988 116.978 125.681C116.891 125.375 116.74 125.09 116.533 124.848C116.335 124.615 116.09 124.428 115.813 124.299C115.536 124.17 115.234 124.103 114.929 124.102H108.708Z" fill="#090525"/>
<path d="M92.2023 158.223H85.9714C85.5824 158.222 85.1981 158.137 84.8446 157.975C84.491 157.812 84.1765 157.576 83.9222 157.281C83.6584 156.977 83.4631 156.619 83.3495 156.233C83.2359 155.846 83.2066 155.44 83.2637 155.041L85.5711 138.765C85.662 138.108 85.9856 137.506 86.483 137.068C86.9804 136.63 87.6186 136.384 88.2815 136.377H94.5137C94.9029 136.378 95.2871 136.463 95.6406 136.626C95.9942 136.788 96.3087 137.025 96.5629 137.32C96.8265 137.624 97.0216 137.981 97.135 138.368C97.2484 138.754 97.2774 139.16 97.22 139.559L94.9113 155.836C94.8201 156.492 94.4966 157.094 93.9995 157.532C93.5024 157.97 92.8647 158.215 92.2023 158.223ZM86.1708 138.85L83.8648 155.126C83.8194 155.438 83.8417 155.757 83.9304 156.06C84.019 156.363 84.1718 156.644 84.3785 156.882C84.5762 157.112 84.8209 157.296 85.096 157.422C85.3711 157.548 85.6701 157.614 85.9728 157.615H92.2023C92.7189 157.608 93.216 157.416 93.6031 157.074C93.9902 156.732 94.2416 156.262 94.3116 155.75L96.6271 139.481C96.6722 139.168 96.6496 138.849 96.5607 138.546C96.4718 138.243 96.3188 137.963 96.1121 137.724C95.9146 137.495 95.6702 137.311 95.3953 137.184C95.1205 137.058 94.8217 136.992 94.5192 136.992H88.2801C87.7645 136.998 87.2683 137.189 86.8813 137.53C86.4944 137.871 86.2423 138.339 86.1708 138.85Z" fill="#090525"/>
<path d="M83.2925 179.848C81.0124 179.848 79.1572 177.96 79.1572 175.64C79.1572 173.321 81.0124 171.433 83.2925 171.433C85.5725 171.433 87.4277 173.321 87.4277 175.64C87.4277 177.96 85.5725 179.848 83.2925 179.848ZM83.2925 172.039C81.3471 172.039 79.7638 173.655 79.7638 175.64C79.7638 177.625 81.3471 179.241 83.2925 179.241C85.2378 179.241 86.8198 177.625 86.8198 175.64C86.8198 173.655 85.2378 172.039 83.2925 172.039Z" fill="#090525"/>
<path d="M80.0171 195.94C77.737 195.94 75.8818 194.052 75.8818 191.732C75.8818 189.412 77.737 187.524 80.0171 187.524C82.2971 187.524 84.1523 189.411 84.1523 191.732C84.1523 194.053 82.2971 195.94 80.0171 195.94ZM80.0171 188.131C78.0717 188.131 76.4898 189.746 76.4898 191.732C76.4898 193.718 78.0717 195.333 80.0171 195.333C81.9624 195.333 83.5458 193.717 83.5458 191.732C83.5458 189.747 81.9624 188.131 80.0171 188.131Z" fill="#090525"/>
<path d="M77.1294 212.816C74.8493 212.816 72.9941 210.929 72.9941 208.608C72.9941 206.287 74.8493 204.4 77.1294 204.4C79.4094 204.4 81.2646 206.288 81.2646 208.608C81.2646 210.928 79.4135 212.816 77.1294 212.816ZM77.1294 205.007C75.184 205.007 73.6007 206.623 73.6007 208.608C73.6007 210.593 75.184 212.209 77.1294 212.209C79.0747 212.209 80.6567 210.594 80.6567 208.608C80.6567 206.622 79.0747 205.007 77.1294 205.007Z" fill="#090525"/>
<path d="M135.481 175.943H94.4615C94.3811 175.943 94.3039 175.912 94.247 175.855C94.1902 175.798 94.1582 175.721 94.1582 175.64C94.1582 175.56 94.1902 175.483 94.247 175.426C94.3039 175.369 94.3811 175.337 94.4615 175.337H135.481C135.561 175.337 135.638 175.369 135.695 175.426C135.752 175.483 135.784 175.56 135.784 175.64C135.784 175.721 135.752 175.798 135.695 175.855C135.638 175.912 135.561 175.943 135.481 175.943Z" fill="#090525"/>
<path d="M132.912 191.904H128.643C128.563 191.904 128.486 191.872 128.429 191.816C128.372 191.759 128.34 191.682 128.34 191.601C128.34 191.521 128.372 191.444 128.429 191.387C128.486 191.33 128.563 191.298 128.643 191.298H132.912C132.993 191.298 133.07 191.33 133.127 191.387C133.184 191.444 133.216 191.521 133.216 191.601C133.216 191.682 133.184 191.759 133.127 191.816C133.07 191.872 132.993 191.904 132.912 191.904Z" fill="white"/>
<path d="M120.844 191.904H91.8931C91.8127 191.904 91.7355 191.872 91.6787 191.816C91.6218 191.759 91.5898 191.682 91.5898 191.601C91.5898 191.521 91.6218 191.444 91.6787 191.387C91.7355 191.33 91.8127 191.298 91.8931 191.298H120.844C120.924 191.298 121.002 191.33 121.058 191.387C121.115 191.444 121.147 191.521 121.147 191.601C121.147 191.682 121.115 191.759 121.058 191.816C121.002 191.872 120.924 191.904 120.844 191.904Z" fill="#090525"/>
<path d="M129.575 208.388H88.5562C88.4758 208.388 88.3986 208.356 88.3418 208.299C88.2849 208.242 88.2529 208.165 88.2529 208.085C88.2529 208.004 88.2849 207.927 88.3418 207.87C88.3986 207.813 88.4758 207.781 88.5562 207.781H129.575C129.656 207.781 129.733 207.813 129.79 207.87C129.847 207.927 129.879 208.004 129.879 208.085C129.879 208.165 129.847 208.242 129.79 208.299C129.733 208.356 129.656 208.388 129.575 208.388Z" fill="#090525"/>
<path d="M86.1074 101.944C86.1074 101.944 92.2413 101.853 95.4462 100.462C98.6511 99.0713 98.6019 101.484 97.6948 102.332C96.9599 103.015 92.5309 105.489 88.561 105.778L86.1074 101.944Z" fill="white"/>
<path d="M88.5671 106.081C88.5162 106.081 88.4661 106.069 88.4213 106.045C88.3764 106.021 88.3382 105.986 88.3102 105.944L85.8512 102.109C85.8218 102.064 85.8051 102.011 85.803 101.957C85.8008 101.903 85.8132 101.85 85.8389 101.802C85.865 101.753 85.9037 101.712 85.9511 101.684C85.9985 101.655 86.0527 101.64 86.108 101.639C86.1681 101.639 92.2187 101.534 95.3307 100.183C97.3007 99.3278 98.052 99.8934 98.3225 100.307C98.7679 100.99 98.4591 102.035 97.9127 102.555C97.0643 103.348 92.5411 105.794 88.593 106.081H88.5671ZM86.6545 102.232L88.7242 105.464C92.6149 105.119 96.8813 102.688 97.4933 102.115C97.8621 101.769 98.0848 101.052 97.817 100.645C97.5329 100.212 96.716 100.249 95.5739 100.745C92.8731 101.913 88.2419 102.175 86.6545 102.232Z" fill="#090525"/>
<path d="M77.166 99.6447L80.2084 93.6338L83.0294 95.2731C83.1852 95.3644 83.3176 95.4906 83.416 95.642L83.5936 95.9152C83.7023 96.0842 83.854 96.2213 84.033 96.3125C84.2121 96.4037 84.4121 96.4457 84.6127 96.4343C84.8342 96.4208 85.0548 96.4731 85.2466 96.5846L106.233 108.761C106.406 108.861 106.566 108.984 106.707 109.126L111.042 113.484L105.258 112.475C104.942 112.42 104.635 112.324 104.344 112.19L82.3901 102.055C82.2022 101.968 82.0413 101.832 81.9242 101.661L81.8955 101.619C81.7862 101.458 81.6373 101.328 81.4631 101.241C81.2889 101.154 81.0954 101.113 80.901 101.123L80.7029 101.134C80.5205 101.143 80.3386 101.108 80.1728 101.031L77.166 99.6447Z" fill="white"/>
<path d="M111.042 113.79C111.025 113.791 111.008 113.791 110.991 113.79L105.206 112.782C104.865 112.723 104.532 112.619 104.217 112.473L82.2638 102.338C82.0261 102.229 81.8226 102.057 81.675 101.841L81.6449 101.797C81.565 101.679 81.4562 101.584 81.3289 101.52C81.2017 101.457 81.0603 101.427 80.9182 101.433L80.7201 101.444C80.4878 101.454 80.2567 101.407 80.0466 101.308L77.0411 99.9185C77.004 99.9014 76.9707 99.877 76.9432 99.8467C76.9157 99.8164 76.8947 99.7809 76.8813 99.7422C76.8677 99.7038 76.8622 99.663 76.865 99.6224C76.8678 99.5817 76.8789 99.5421 76.8977 99.5059L79.9387 93.495C79.9576 93.4582 79.9839 93.4256 80.0158 93.3993C80.0478 93.373 80.0847 93.3535 80.1245 93.342C80.1639 93.33 80.2054 93.3263 80.2463 93.3312C80.2873 93.3362 80.3267 93.3496 80.3622 93.3706L83.1846 95.01C83.3816 95.1247 83.5487 95.2843 83.6723 95.4758L83.8499 95.7491C83.9296 95.873 84.0408 95.9736 84.172 96.0405C84.3033 96.1075 84.45 96.1384 84.5971 96.1302C84.8779 96.1128 85.1576 96.1794 85.4004 96.3215L106.388 108.496C106.583 108.61 106.763 108.747 106.924 108.906L111.26 113.264C111.302 113.307 111.331 113.361 111.343 113.42C111.354 113.479 111.348 113.54 111.325 113.595C111.302 113.651 111.263 113.698 111.213 113.731C111.163 113.765 111.104 113.782 111.044 113.782L111.042 113.79ZM80.9605 100.82C81.1943 100.821 81.4242 100.879 81.6308 100.988C81.8373 101.098 82.0142 101.256 82.1463 101.449L82.1764 101.492C82.2618 101.618 82.3799 101.717 82.5179 101.78L104.471 111.917C104.739 112.04 105.021 112.128 105.31 112.179L110.153 113.022L106.492 109.342C106.37 109.219 106.232 109.113 106.082 109.025L85.0958 96.8488C84.956 96.7676 84.7953 96.7296 84.634 96.7395C84.3795 96.7547 84.1254 96.7019 83.898 96.5864C83.6707 96.4709 83.4782 96.2969 83.3403 96.0824L83.1627 95.8092C83.0911 95.6972 82.9942 95.6037 82.8799 95.5359L80.3362 94.0578L77.5807 99.4991L80.3021 100.756C80.4229 100.812 80.5556 100.838 80.6887 100.831L80.8868 100.82H80.9605Z" fill="#090525"/>
<path d="M105.643 111.082C105.602 111.082 105.56 111.073 105.522 111.056C105.448 111.024 105.391 110.964 105.362 110.889C105.332 110.814 105.334 110.731 105.366 110.657L106.167 108.839C106.201 108.768 106.261 108.714 106.335 108.687C106.409 108.659 106.49 108.662 106.562 108.694C106.634 108.725 106.691 108.784 106.72 108.856C106.75 108.929 106.75 109.01 106.721 109.083L105.917 110.902C105.893 110.955 105.855 111 105.807 111.032C105.758 111.064 105.702 111.081 105.643 111.082Z" fill="#090525"/>
<path d="M75.3294 90.9834L79.8977 93.4424C80.0104 93.5032 80.0946 93.6061 80.1319 93.7286C80.1693 93.8511 80.1568 93.9834 80.0972 94.0968L77.4168 99.2389C77.3872 99.2959 77.3465 99.3464 77.2972 99.3876C77.2479 99.4287 77.1909 99.4597 77.1295 99.4786C77.0681 99.4975 77.0035 99.5041 76.9396 99.4979C76.8757 99.4917 76.8136 99.4728 76.757 99.4424L72.1982 96.9834C71.7605 96.7522 71.4309 96.3586 71.2802 95.8871C71.1295 95.4156 71.1697 94.9037 71.3922 94.4615L72.8239 91.7156C72.9386 91.5013 73.0948 91.312 73.2835 91.1588C73.4722 91.0056 73.6896 90.8916 73.9229 90.8234C74.1562 90.7552 74.4008 90.7342 74.6423 90.7617C74.8838 90.7892 75.1174 90.8646 75.3294 90.9834Z" fill="#090525"/>
<path d="M76.9848 99.8063C76.8545 99.8057 76.7263 99.7729 76.6118 99.7107L72.0545 97.2517C71.547 96.9823 71.1652 96.5248 70.9911 95.9773C70.8169 95.4298 70.8642 94.8358 71.1228 94.3227L72.5544 91.5755C72.6824 91.3287 72.8584 91.1101 73.0721 90.9325C73.2859 90.7549 73.533 90.6219 73.799 90.5413C74.0752 90.4568 74.3654 90.4282 74.6528 90.4573C74.9402 90.4864 75.2188 90.5726 75.4725 90.7107L80.0408 93.1697C80.2232 93.2688 80.3595 93.4355 80.4203 93.634C80.4811 93.8325 80.4616 94.0469 80.3659 94.2312L77.6856 99.3733C77.6374 99.4661 77.5711 99.5484 77.4906 99.6152C77.4101 99.6821 77.3171 99.7322 77.217 99.7626C77.1422 99.7886 77.0639 99.8033 76.9848 99.8063ZM74.4315 91.055C74.2773 91.0553 74.124 91.0783 73.9766 91.1233C73.7877 91.1808 73.6123 91.2754 73.4605 91.4016C73.3087 91.5278 73.1837 91.6831 73.0927 91.8582L71.661 94.6041C71.4758 94.976 71.4436 95.4055 71.5713 95.8008C71.699 96.1961 71.9764 96.5257 72.3441 96.7189L76.9014 99.1779C76.9222 99.1891 76.9449 99.1961 76.9684 99.1985C76.9918 99.2008 77.0155 99.1985 77.0381 99.1916C77.0612 99.1845 77.0826 99.1729 77.1012 99.1575C77.1197 99.142 77.135 99.1229 77.146 99.1014L79.8236 93.958C79.8459 93.9153 79.8505 93.8656 79.8364 93.8196C79.8224 93.7736 79.7908 93.735 79.7484 93.7121L75.1801 91.2531C74.9509 91.1259 74.6936 91.0578 74.4315 91.055Z" fill="#090525"/>
<path d="M82.0006 100.546C81.9505 100.546 81.9012 100.534 81.8572 100.51C81.7864 100.472 81.7336 100.407 81.7103 100.33C81.687 100.253 81.6951 100.171 81.7329 100.1L83.2465 97.2677C83.2846 97.1967 83.3493 97.1437 83.4264 97.1204C83.5035 97.0971 83.5867 97.1054 83.6577 97.1434C83.7288 97.1815 83.7817 97.2462 83.8051 97.3233C83.8284 97.4004 83.8201 97.4836 83.7821 97.5546L82.2684 100.381C82.243 100.43 82.2047 100.472 82.1575 100.501C82.1103 100.53 82.0561 100.546 82.0006 100.546Z" fill="#090525"/>
<path d="M91.8457 102.698C91.7937 102.698 91.7425 102.685 91.6968 102.66L85.4414 99.1474C85.4051 99.1288 85.3729 99.1031 85.3468 99.0718C85.3206 99.0404 85.3011 99.0042 85.2893 98.9651C85.2775 98.9261 85.2737 98.8851 85.2782 98.8445C85.2826 98.804 85.2952 98.7647 85.3151 98.7292C85.3351 98.6936 85.362 98.6624 85.3943 98.6375C85.4265 98.6125 85.4635 98.5944 85.503 98.5841C85.5424 98.5738 85.5836 98.5715 85.6239 98.5775C85.6643 98.5834 85.703 98.5975 85.7378 98.6187L91.9946 102.13C92.0534 102.162 92.0997 102.214 92.1261 102.276C92.1525 102.338 92.1576 102.406 92.1406 102.472C92.1235 102.537 92.0853 102.594 92.0319 102.635C91.9785 102.676 91.913 102.698 91.8457 102.698Z" fill="#090525"/>
<path d="M104.232 109.925C104.18 109.925 104.129 109.912 104.084 109.887L101.64 108.528C101.574 108.486 101.526 108.421 101.507 108.345C101.487 108.27 101.498 108.189 101.536 108.121C101.574 108.053 101.637 108.002 101.711 107.979C101.786 107.955 101.866 107.962 101.937 107.996L104.379 109.362C104.438 109.395 104.484 109.446 104.511 109.508C104.537 109.57 104.542 109.639 104.525 109.704C104.508 109.769 104.47 109.826 104.417 109.867C104.364 109.908 104.299 109.931 104.232 109.931V109.925Z" fill="#090525"/>
<path d="M76.5325 97.6643C76.4813 97.6643 76.431 97.6511 76.3864 97.6261L72.8973 95.7135C72.8266 95.6749 72.7742 95.6098 72.7515 95.5326C72.7289 95.4553 72.7378 95.3722 72.7764 95.3016C72.815 95.2309 72.8801 95.1785 72.9573 95.1558C73.0345 95.1332 73.1176 95.1421 73.1883 95.1807L76.6787 97.0933C76.7376 97.1259 76.7841 97.1772 76.8107 97.2391C76.8374 97.301 76.8428 97.3699 76.8261 97.4352C76.8094 97.5005 76.7715 97.5584 76.7184 97.5998C76.6653 97.6413 76.5999 97.6639 76.5325 97.6643Z" fill="white"/>
<path d="M75.0513 104.346C75.0513 104.346 80.4789 105.115 84.1388 102.288C87.2521 99.8827 93.5582 106.768 94.1005 107.642C94.8683 108.88 93.1784 110.824 91.2317 109.723C91.2317 109.723 90.7153 112.791 86.5049 113.306C82.2945 113.821 80.4939 111.063 79.3696 110.65C78.2453 110.238 74.998 110.216 74.998 110.216L75.0513 104.346Z" fill="white"/>
<path d="M85.4696 113.673C82.8739 113.673 81.3097 112.444 80.2278 111.59C79.8425 111.288 79.5105 111.026 79.2605 110.936C78.1936 110.546 75.0256 110.526 74.9969 110.526C74.9162 110.524 74.8393 110.492 74.7824 110.434C74.7545 110.406 74.7325 110.372 74.7178 110.335C74.703 110.298 74.6957 110.258 74.6963 110.218L74.7469 104.344C74.7472 104.301 74.7568 104.258 74.7751 104.219C74.7933 104.179 74.8197 104.145 74.8526 104.116C74.8855 104.088 74.9241 104.067 74.9657 104.055C75.0073 104.043 75.051 104.04 75.0939 104.046C75.1472 104.053 80.4395 104.764 83.9532 102.049C84.613 101.54 85.4368 101.366 86.404 101.545C89.7674 102.153 93.9286 106.79 94.3589 107.484C94.7687 108.145 94.6321 109.019 94.0187 109.658C93.6885 109.996 93.2628 110.225 92.7987 110.314C92.3347 110.402 91.8546 110.347 91.4231 110.154C91.1157 111.038 90.0215 113.183 86.5406 113.608C86.1853 113.652 85.8276 113.674 85.4696 113.673ZM75.3056 109.917C76.1499 109.934 78.501 110.012 79.4696 110.365C79.8097 110.489 80.1594 110.764 80.6034 111.112C81.7469 112.011 83.4723 113.369 86.4641 113.004C90.3835 112.524 90.9081 109.787 90.9286 109.671C90.9369 109.623 90.9567 109.577 90.9862 109.539C91.0157 109.5 91.0541 109.469 91.0981 109.448C91.1422 109.427 91.1906 109.417 91.2393 109.419C91.288 109.42 91.3356 109.434 91.378 109.458C92.3343 109.996 93.1403 109.697 93.5816 109.238C93.9299 108.874 94.1458 108.29 93.8425 107.802C93.4805 107.218 89.445 102.71 86.2961 102.141C85.4941 101.996 84.8493 102.123 84.3247 102.527C81.0966 105.022 76.6253 104.806 75.3521 104.684L75.3056 109.917Z" fill="#090525"/>
<path d="M38.1729 60.6992C38.1729 60.6992 30.7385 63.8263 26.8177 76.5599C24.6511 83.5886 25.0418 93.6104 35.7317 106.931C37.8696 109.597 40.871 112.247 44.259 112.63L76.7303 112.945L76.5868 102.55C76.5868 102.55 51.4038 99.2716 47.6251 97.855C44.2726 96.594 39.4175 80.1801 38.912 72.1268L38.1729 60.6992Z" fill="white"/>
<path d="M76.7269 113.251L44.2556 112.936H44.2242C40.5248 112.518 37.4346 109.545 35.4947 107.126C34.3431 105.691 33.2338 104.236 32.1955 102.803C32.1482 102.738 32.1288 102.657 32.1415 102.577C32.1542 102.497 32.1979 102.426 32.2631 102.379C32.3284 102.332 32.4097 102.312 32.4892 102.325C32.5688 102.338 32.64 102.381 32.6873 102.447C33.7188 103.871 34.8226 105.315 35.966 106.746C37.8321 109.068 40.7871 111.929 44.2748 112.33L76.4196 112.642L76.283 102.821C73.4524 102.451 51.1204 99.5012 47.5097 98.1433C44.4947 97.0094 40.9291 85.6173 39.4701 78.2744C39.4624 78.2353 39.4625 78.1951 39.4703 78.156C39.4781 78.1169 39.4936 78.0797 39.5158 78.0466C39.538 78.0135 39.5665 77.9851 39.5997 77.963C39.6329 77.9409 39.6701 77.9256 39.7092 77.9178C39.7483 77.9101 39.7885 77.9102 39.8276 77.918C39.8667 77.9259 39.9039 77.9413 39.937 77.9635C39.9701 77.9857 39.9985 78.0142 40.0206 78.0474C40.0427 78.0806 40.058 78.1178 40.0657 78.1569C41.7461 86.6118 45.3048 96.6651 47.716 97.575C51.425 98.9698 76.3636 102.22 76.6149 102.253C76.6874 102.262 76.754 102.298 76.8026 102.352C76.8512 102.407 76.8787 102.477 76.88 102.55L77.0166 112.945C77.0172 112.986 77.0098 113.026 76.9948 113.063C76.9798 113.101 76.9575 113.135 76.9291 113.164C76.8746 113.217 76.8027 113.248 76.7269 113.251Z" fill="#090525"/>
<path d="M104.33 19.3796C104.707 20.3646 105.449 23.0135 104.228 24.7894C103.135 26.3823 100.848 26.4465 99.5488 25.0162C98.8657 24.2662 98.5379 23.0408 98.0283 21.3113C97.8172 20.5948 97.4657 19.9275 96.9941 19.3482C96.8615 19.1784 96.6919 19.0409 96.4983 18.9463C96.3047 18.8516 96.0922 18.8022 95.8767 18.8017L92.0146 18.7826C92.0146 18.7826 92.0447 17.2799 93.169 16.676C94.1526 16.1473 96.6991 16.5831 96.8972 16.284C99.1226 12.937 102.81 15.4165 104.33 19.3796Z" fill="white"/>
<path d="M101.834 26.3426C101.36 26.3417 100.892 26.2414 100.46 26.0482C100.028 25.855 99.6409 25.5732 99.3244 25.221C98.6413 24.4642 98.2984 23.3084 97.8217 21.706L97.7301 21.3972C97.5296 20.7175 97.1957 20.0845 96.7479 19.5352C96.6438 19.4011 96.5103 19.2927 96.3579 19.2181C96.2054 19.1435 96.0379 19.1048 95.8681 19.1049L92.0061 19.0857C91.9658 19.0856 91.9259 19.0774 91.8889 19.0616C91.8518 19.0459 91.8182 19.0229 91.7901 18.994C91.762 18.9652 91.7399 18.931 91.7251 18.8935C91.7104 18.856 91.7033 18.8159 91.7042 18.7756C91.7042 18.7073 91.752 17.0871 93.0184 16.4081C93.6509 16.0693 94.7629 16.083 95.6564 16.0939C95.995 16.1098 96.3343 16.0998 96.6714 16.0639C97.7014 14.5502 98.9118 14.3398 99.7506 14.4327C101.625 14.6404 103.576 16.5844 104.606 19.2702C104.833 19.859 105.887 22.9013 104.469 24.9614C104.197 25.3586 103.838 25.6888 103.42 25.9269C103.001 26.165 102.534 26.3048 102.054 26.3357C101.986 26.3398 101.91 26.3426 101.834 26.3426ZM92.3531 18.4805L95.8777 18.4969C96.1394 18.4971 96.3977 18.557 96.6327 18.672C96.8678 18.7871 97.0735 18.9543 97.2342 19.1609C97.7309 19.7702 98.1024 20.4717 98.3271 21.2251L98.4173 21.5352C98.864 23.0584 99.1878 24.1595 99.7834 24.8139C100.064 25.1273 100.412 25.3727 100.801 25.5315C101.191 25.6904 101.611 25.7584 102.031 25.7305C102.42 25.706 102.798 25.5931 103.137 25.4005C103.476 25.2078 103.767 24.9404 103.987 24.6185C105.232 22.8098 104.26 20.0284 104.057 19.4887C103.119 17.0489 101.324 15.2183 99.7001 15.0379C98.7124 14.9286 97.8572 15.404 97.1591 16.4532C96.9897 16.7087 96.6031 16.7142 95.6659 16.7019C94.8845 16.6923 93.8162 16.6786 93.3217 16.9437C92.6468 17.3002 92.4269 18.0543 92.3531 18.4805Z" fill="#090525"/>
<path d="M41.1253 211.805L38.7578 223.167L44.9545 224.921L48.3808 213.859L41.1253 211.805Z" fill="white"/>
<path d="M44.9546 225.224C44.9265 225.224 44.8984 225.22 44.8713 225.213L38.676 223.459C38.6021 223.438 38.5388 223.39 38.499 223.324C38.4592 223.258 38.4458 223.18 38.4615 223.105L40.8276 211.748C40.8359 211.708 40.8522 211.669 40.8757 211.635C40.8992 211.601 40.9293 211.572 40.9642 211.55C40.9997 211.529 41.0393 211.515 41.0804 211.509C41.1216 211.504 41.1634 211.507 41.2033 211.519L48.4587 213.568C48.4977 213.579 48.534 213.598 48.5657 213.623C48.5973 213.649 48.6237 213.68 48.6432 213.716C48.6627 213.751 48.6748 213.79 48.6788 213.831C48.6828 213.871 48.6786 213.912 48.6664 213.951L45.2402 225.016C45.2204 225.076 45.1822 225.129 45.1309 225.166C45.0797 225.203 45.018 225.223 44.9546 225.224ZM39.1131 222.951L44.7525 224.548L47.9929 214.071L41.3508 212.19L39.1131 222.951Z" fill="#090525"/>
<path d="M36.7089 232.742C36.7786 233.835 38.116 234.712 39.1966 234.875C42.9548 235.444 51.7868 235.204 54.1857 235.369C57.299 235.585 63.1474 235.353 63.3728 233.366C63.646 230.943 61.0395 227.409 54.7922 225.473C51.5613 224.472 48.1433 219.511 46.631 219.422C45.1187 219.334 42.4425 223.248 42.4425 223.248L38.1378 221.783C38.1378 221.783 36.3537 227.197 36.7089 232.742Z" fill="white"/>
<path d="M56.1464 235.727C55.0057 235.727 54.1928 235.673 54.1655 235.672C53.3458 235.615 51.7352 235.607 49.869 235.596C46.1996 235.575 41.6327 235.551 39.1518 235.175C37.8882 234.984 36.4838 233.969 36.4059 232.761C36.0521 227.221 37.8308 221.746 37.8499 221.695C37.8624 221.657 37.8823 221.622 37.9085 221.592C37.9347 221.562 37.9667 221.537 38.0025 221.519C38.0384 221.501 38.0774 221.491 38.1173 221.488C38.1573 221.486 38.1973 221.491 38.2352 221.504L42.324 222.895C42.9332 222.034 45.1614 219.037 46.6491 219.123C47.436 219.169 48.4879 220.176 49.8185 221.445C51.3076 222.872 53.1614 224.647 54.8827 225.18C61.339 227.182 63.966 230.843 63.675 233.397C63.4442 235.423 58.8649 235.727 56.1464 235.727ZM38.3363 222.175C37.9797 223.37 36.7119 228.027 37.0125 232.723C37.0699 233.624 38.2338 234.422 39.242 234.575C41.6805 234.944 46.2229 234.969 49.8718 234.985C51.7488 234.995 53.369 235.004 54.2065 235.061C57.675 235.302 62.8909 234.917 63.0726 233.328C63.3458 230.94 60.5562 227.572 54.7024 225.758C52.8444 225.183 50.9346 223.352 49.3991 221.882C48.257 220.79 47.1778 219.754 46.6136 219.721C45.6341 219.664 43.6914 221.959 42.6942 223.419C42.6566 223.474 42.6023 223.515 42.5395 223.536C42.4766 223.557 42.4086 223.557 42.3458 223.535L38.3363 222.175Z" fill="#090525"/>
<path d="M57.7691 232.772C56.9494 232.772 56.0437 232.726 55.0874 232.675C53.6707 232.602 52.2049 232.525 50.7623 232.591C48.1471 232.709 45.5272 232.671 42.9166 232.476C39.6379 232.227 39.5013 232.02 39.4521 231.942C39.4238 231.896 39.4081 231.843 39.4064 231.789C39.4047 231.735 39.4172 231.681 39.4426 231.633C39.481 231.563 39.5456 231.51 39.6223 231.487C39.699 231.464 39.7817 231.473 39.8524 231.51C40.3756 231.647 44.9399 232.248 50.7295 231.983C52.2008 231.916 53.6817 231.994 55.1133 232.067C57.2827 232.181 59.3306 232.287 60.515 231.783C60.5517 231.768 60.5911 231.759 60.6309 231.759C60.6708 231.759 60.7104 231.766 60.7473 231.781C60.7843 231.796 60.818 231.818 60.8465 231.846C60.8749 231.874 60.8976 231.907 60.9132 231.944C60.9288 231.98 60.937 232.02 60.9374 232.06C60.9378 232.1 60.9303 232.139 60.9154 232.176C60.9005 232.213 60.8785 232.247 60.8505 232.275C60.8226 232.304 60.7894 232.326 60.7527 232.342C59.9822 232.674 58.959 232.772 57.7691 232.772Z" fill="#090525"/>
<path d="M49.7501 228.876C49.6904 228.875 49.6322 228.857 49.5826 228.824C49.533 228.791 49.4942 228.744 49.4711 228.689C49.448 228.634 49.4415 228.573 49.4525 228.515C49.4635 228.456 49.4914 228.402 49.5329 228.359L51.8007 226.037C51.8285 226.008 51.8618 225.985 51.8985 225.97C51.9352 225.954 51.9746 225.946 52.0145 225.945C52.0544 225.945 52.094 225.952 52.131 225.967C52.168 225.982 52.2018 226.004 52.2303 226.032C52.2588 226.06 52.2816 226.093 52.2973 226.13C52.3129 226.166 52.3212 226.206 52.3217 226.246C52.3221 226.286 52.3147 226.325 52.2998 226.362C52.285 226.399 52.263 226.433 52.2351 226.462L49.9673 228.784C49.9099 228.842 49.8318 228.875 49.7501 228.876Z" fill="#090525"/>
<path d="M7.5187 211.265L7.20312 219.188L12.7345 220.524L13.7195 211.321L7.5187 211.265Z" fill="white"/>
<path d="M12.7343 220.829C12.7099 220.83 12.6855 220.826 12.6619 220.82L7.13186 219.484C7.06377 219.467 7.00344 219.428 6.96111 219.372C6.91878 219.316 6.89705 219.248 6.89962 219.178L7.21519 211.254C7.21836 211.176 7.25166 211.102 7.30816 211.047C7.36466 210.993 7.44 210.962 7.51847 210.962L13.7193 211.019C13.7616 211.019 13.8035 211.028 13.8421 211.046C13.8807 211.063 13.9152 211.088 13.9434 211.12C13.9717 211.152 13.9929 211.189 14.0058 211.229C14.0188 211.269 14.0231 211.312 14.0185 211.354L13.0335 220.559C13.0257 220.634 12.9906 220.703 12.9349 220.753C12.8792 220.804 12.8068 220.832 12.7316 220.832L12.7343 220.829ZM7.51574 218.952L12.4693 220.149L13.3819 211.622L7.80945 211.571L7.51574 218.952Z" fill="#090525"/>
<path d="M13.5779 234.933C11.362 235.245 7.74453 235.378 3.46038 234.933C1.53962 234.732 0.789617 232.064 1.12705 230.685C2.06694 226.86 3.69945 220.683 6.47814 217.317L7.49863 219.366L8.46175 217.362C8.52635 217.246 8.61722 217.146 8.72706 217.072C8.83689 216.997 8.96266 216.95 9.09426 216.933L11.1721 216.953C11.3827 216.926 11.5955 216.98 11.7683 217.103C11.941 217.227 12.0608 217.411 12.1038 217.618L12.4358 219.203L14.2117 217.154L15.5956 232.258C15.681 232.88 15.5167 233.51 15.1386 234.011C14.7605 234.513 14.1994 234.844 13.5779 234.933Z" fill="white"/>
<path d="M8.84811 235.519C7.03731 235.516 5.22792 235.418 3.42735 235.226C2.68965 235.148 2.04074 234.742 1.5544 234.049C0.792106 232.965 0.613144 231.495 0.831723 230.604C1.95877 226.011 3.59265 220.325 6.24429 217.114C6.27688 217.074 6.31908 217.043 6.36689 217.024C6.4147 217.005 6.46655 216.999 6.51751 217.006C6.56782 217.011 6.61592 217.029 6.65727 217.058C6.69862 217.088 6.73186 217.127 6.75385 217.172L7.49839 218.675L8.19238 217.231C8.2791 217.07 8.40301 216.931 8.55386 216.827C8.70471 216.723 8.87816 216.657 9.05987 216.633H9.10085L11.1596 216.653C11.4423 216.624 11.7258 216.701 11.9557 216.868C12.1856 217.035 12.3457 217.281 12.4055 217.559L12.6118 218.545L13.9779 216.962C14.0168 216.917 14.0681 216.884 14.1254 216.868C14.1827 216.852 14.2434 216.853 14.3001 216.872C14.3567 216.89 14.4068 216.924 14.444 216.971C14.4812 217.017 14.5039 217.074 14.5093 217.133L15.8959 232.241C15.9853 232.939 15.7971 233.644 15.3716 234.205C14.9462 234.765 14.3177 235.136 13.6213 235.238C12.0386 235.441 10.4438 235.535 8.84811 235.519ZM6.41915 217.872C3.69648 221.478 2.11178 227.936 1.42189 230.749C1.24019 231.488 1.40003 232.774 2.05167 233.701C2.43965 234.248 2.92462 234.563 3.49156 234.622C7.11178 235.002 10.8686 235.004 13.5353 234.622C14.0754 234.542 14.5625 234.253 14.8912 233.817C15.22 233.382 15.364 232.834 15.2921 232.293L13.9765 217.896L12.6692 219.399C12.6321 219.442 12.5839 219.473 12.53 219.49C12.476 219.507 12.4185 219.508 12.3638 219.494C12.3091 219.48 12.2595 219.451 12.2205 219.41C12.1816 219.369 12.1548 219.318 12.1432 219.263L11.8112 217.679C11.7826 217.547 11.7056 217.429 11.5953 217.35C11.4849 217.271 11.3491 217.236 11.2142 217.252C11.2006 217.253 11.1869 217.253 11.1733 217.252L9.11724 217.233C9.03648 217.246 8.95981 217.277 8.89305 217.325C8.82629 217.372 8.77121 217.434 8.73199 217.506L7.77571 219.493C7.75154 219.545 7.71291 219.589 7.66445 219.62C7.61599 219.65 7.55976 219.666 7.50249 219.666C7.44646 219.663 7.39201 219.646 7.34424 219.617C7.29646 219.587 7.2569 219.546 7.22926 219.498L6.41915 217.872Z" fill="#090525"/>
<path d="M7.41963 233.045C5.91249 233.054 4.40906 232.894 2.93739 232.569C2.86242 232.548 2.79855 232.498 2.75896 232.431C2.71937 232.364 2.70706 232.284 2.72458 232.208C2.74209 232.132 2.78809 232.066 2.8531 232.023C2.9181 231.979 2.99717 231.963 3.074 231.976C8.28984 233.169 13.742 231.636 13.7967 231.621C13.835 231.61 13.8751 231.607 13.9147 231.611C13.9543 231.616 13.9926 231.628 14.0275 231.647C14.0624 231.667 14.0932 231.692 14.118 231.724C14.1429 231.755 14.1613 231.791 14.1724 231.829C14.1834 231.867 14.1868 231.907 14.1823 231.947C14.1778 231.987 14.1656 232.025 14.1463 232.06C14.1271 232.095 14.1011 232.125 14.0699 232.15C14.0388 232.175 14.003 232.194 13.9647 232.205C11.8276 232.762 9.62818 233.044 7.41963 233.045Z" fill="#090525"/>
<path d="M6.14692 227.185C6.0696 227.182 5.99656 227.149 5.94262 227.093C5.88868 227.038 5.85789 226.964 5.85649 226.887C5.8551 226.809 5.88322 226.734 5.93513 226.677C5.98704 226.619 6.05885 226.584 6.13598 226.577L11.1223 226.412C11.2025 226.411 11.28 226.441 11.3385 226.495C11.3969 226.55 11.4316 226.626 11.4352 226.706C11.4366 226.746 11.4302 226.785 11.4163 226.823C11.4024 226.86 11.3813 226.894 11.3541 226.924C11.327 226.953 11.2943 226.976 11.2581 226.993C11.2218 227.009 11.1827 227.019 11.1428 227.02L6.15648 227.184L6.14692 227.185Z" fill="#090525"/>
<path d="M65.9245 116.353C68.0228 128.633 71.8371 158.812 63.6021 181.387C56.5146 200.814 51.4559 210.485 49.5119 214.001C49.2531 214.47 48.8592 214.85 48.3814 215.092C47.9036 215.334 47.3641 215.427 46.833 215.358L41.7783 214.708C41.4226 214.662 41.0797 214.545 40.77 214.363C40.4604 214.182 40.1902 213.941 39.9755 213.654C39.7609 213.366 39.6061 213.039 39.5204 212.69C39.4346 212.342 39.4197 211.98 39.4764 211.626C41.3193 200.067 48.6403 143.803 46.6909 138.604L15.322 212.353C15.157 212.735 14.8826 213.06 14.5333 213.287C14.184 213.514 13.7755 213.633 13.3589 213.629L8.05973 213.57C7.77883 213.566 7.50149 213.506 7.24384 213.394C6.98619 213.282 6.75337 213.12 6.55889 212.917C6.36442 212.715 6.21217 212.475 6.11101 212.213C6.00984 211.951 5.96176 211.672 5.96957 211.391C7.53378 151.698 25.0092 142.093 30.1294 113.553C30.1417 113.486 31.807 115.492 31.8685 115.529C36.9955 118.499 39.5611 118.261 47.4272 118.697C55.934 119.163 63.8371 115.952 65.7004 116.038C65.8425 116.045 65.8999 116.21 65.9245 116.353Z" fill="#090525"/>
<path d="M56.5517 59.1717L58.0026 51.7359C58.0529 51.4923 58.1787 51.2708 58.3621 51.1028C58.5456 50.9348 58.7773 50.8289 59.0244 50.8001L61.9397 50.4682C62.2426 50.4334 62.5257 50.3003 62.7457 50.0894C62.9658 49.8785 63.1107 49.6012 63.1583 49.3001L63.8181 45.1526C63.82 45.1465 63.8238 45.1412 63.8291 45.1376L65.2143 44.3876C65.3466 44.3151 65.4455 44.1941 65.4901 44.05C65.5348 43.906 65.5216 43.7502 65.4534 43.6157L63.993 40.7605C63.7102 40.2045 63.3195 37.072 62.6979 37.0979C62.6979 37.0979 52.2047 33.4436 49.1187 37.7988C48.299 38.9531 48.2116 40.4764 48.7649 41.7783L49.4711 43.4422C50.2047 45.169 50.3687 47.1102 49.8072 48.8999C49.605 49.5439 49.3233 50.1603 48.9684 50.7346L45.0244 56.8821C47.8877 58.3202 51.0392 59.0921 54.243 59.1403L56.5517 59.1717Z" fill="white"/>
<path d="M56.5519 59.4757L54.2431 59.4416C50.9943 59.3886 47.799 58.6061 44.8934 57.1519C44.8554 57.133 44.8218 57.1062 44.7947 57.0734C44.7677 57.0406 44.7479 57.0025 44.7366 56.9615C44.7252 56.9205 44.7226 56.8776 44.7289 56.8356C44.7352 56.7936 44.7503 56.7533 44.7732 56.7175L48.7172 50.57C49.0576 50.0188 49.3279 49.4272 49.5218 48.8091C50.0423 47.1451 49.9316 45.2817 49.1953 43.5604L48.489 41.8992C47.8784 40.4621 48.0259 38.8241 48.8756 37.626C51.9849 33.2366 61.9002 36.5044 62.7568 36.7981C63.3319 36.8446 63.6024 37.8569 63.9685 39.4866C64.0413 39.8725 64.1413 40.2528 64.2677 40.6246L65.7267 43.4798C65.8308 43.6848 65.851 43.9223 65.7829 44.1419C65.7148 44.3615 65.5638 44.5459 65.362 44.656L64.0997 45.3391L63.4631 49.3487C63.404 49.715 63.2271 50.0521 62.9591 50.3088C62.6911 50.5654 62.3466 50.7277 61.9781 50.7708L59.0587 51.1028C58.875 51.124 58.7027 51.2026 58.5663 51.3275C58.4299 51.4523 58.3364 51.617 58.2991 51.7981L56.851 59.2312C56.8371 59.3002 56.7997 59.3624 56.7452 59.4069C56.6906 59.4515 56.6223 59.4758 56.5519 59.4757ZM45.4644 56.7585C48.2082 58.0768 51.2049 58.7853 54.2486 58.835L56.2978 58.8651L57.6994 51.6779C57.7616 51.3709 57.9195 51.0915 58.1505 50.8799C58.3815 50.6683 58.6736 50.5354 58.9849 50.5003L61.9002 50.167C62.1376 50.1401 62.3596 50.0362 62.5323 49.8711C62.705 49.706 62.8189 49.489 62.8565 49.253L63.515 45.1055C63.5241 45.0568 63.5438 45.0107 63.5726 44.9703C63.6014 44.93 63.6386 44.8964 63.6816 44.8719L65.0696 44.126C65.1331 44.092 65.1807 44.0344 65.2019 43.9656C65.2232 43.8968 65.2164 43.8223 65.183 43.7585L63.724 40.9033C63.6161 40.6943 63.5204 40.2804 63.3729 39.6233C63.2254 38.9661 62.918 37.6069 62.6721 37.4047C62.6465 37.403 62.6212 37.3979 62.5969 37.3896C62.4945 37.3528 52.2855 33.8596 49.3674 37.9798C48.6393 39.0071 48.515 40.4197 49.0437 41.6683L49.7499 43.3295C50.5343 45.1179 50.6573 47.1269 50.0969 48.9976C49.8853 49.663 49.5916 50.2995 49.2226 50.8924L45.4644 56.7585Z" fill="#090525"/>
<path d="M54.5147 41.7239C53.9764 40.3851 53.1349 39.8823 53.2852 39.1282C53.3808 38.6692 53.7783 38.381 54.0038 38.217C55.1253 37.3974 56.5994 37.9001 59.5666 38.4588C63.2456 39.1528 63.665 39.2621 64.3603 38.9875C66.1253 38.2894 67.1294 36.1187 67.2059 34.3304C67.2278 33.8291 67.2729 31.1679 65.0133 29.7949C63.3835 28.8045 61.2005 28.8782 59.4355 29.978C59.2811 29.4602 58.9614 28.7334 58.2606 28.3755C56.598 27.5258 54.1185 29.4315 53.251 30.0982C51.8375 31.1963 50.7184 32.6279 49.9942 34.2649C49.6663 34.0818 48.4382 33.4452 47.0994 33.8728C45.1076 34.5094 44.6185 36.9424 44.5762 37.1733C44.0789 39.8618 46.2879 42.2088 47.9573 43.9807C48.8767 44.9561 49.359 45.3291 49.8999 45.6897C50.0568 45.7938 50.2392 45.8529 50.4273 45.8606C50.6154 45.8683 50.802 45.8243 50.9669 45.7334L50.986 45.7225C51.0907 45.6646 51.1825 45.586 51.2558 45.4915C51.3292 45.397 51.3825 45.2886 51.4127 45.1728C51.4428 45.057 51.4491 44.9364 51.4312 44.8181C51.4133 44.6998 51.3715 44.5864 51.3084 44.4848L51.2251 44.3482C50.9008 43.8363 50.695 43.2585 50.6226 42.6569C50.5693 42.1774 50.6076 41.6733 50.915 41.4151C51.4136 40.9971 52.2592 41.2785 52.3808 41.3127C52.9224 41.5028 53.3701 41.8942 53.6308 42.4056C53.8945 42.8755 54.7538 42.3168 54.5147 41.7239Z" fill="#090525"/>
<path d="M25.8963 31.325C25.5539 31.3262 25.215 31.2554 24.9018 31.1171C24.5885 30.9788 24.3079 30.7762 24.078 30.5224C23.8482 30.2686 23.6743 29.9693 23.5677 29.6439C23.461 29.3185 23.4241 28.9743 23.4591 28.6337C23.4922 28.324 23.5873 28.0241 23.7387 27.7518C23.89 27.4796 24.0946 27.2406 24.3403 27.049C24.59 26.8522 24.8768 26.7077 25.1835 26.6239C25.4902 26.5401 25.8107 26.5188 26.1258 26.5613C26.7587 26.6414 27.3351 26.966 27.7319 27.4656C28.1286 27.9652 28.3141 28.6002 28.2487 29.2348C28.2147 29.5444 28.1189 29.844 27.9671 30.116C27.8153 30.3879 27.6105 30.6267 27.3649 30.8181C26.9461 31.1471 26.4288 31.3256 25.8963 31.325ZM24.0616 28.7007C24.0137 29.1769 24.1539 29.653 24.4523 30.0272C24.7507 30.4014 25.1836 30.6441 25.6586 30.7034C25.8938 30.735 26.133 30.7191 26.362 30.6567C26.5911 30.5943 26.8052 30.4866 26.9919 30.34C27.1736 30.1982 27.3251 30.0215 27.4372 29.8201C27.5494 29.6188 27.62 29.397 27.6449 29.1679C27.6928 28.6918 27.5525 28.2159 27.2541 27.8419C26.9557 27.4679 26.5228 27.2255 26.0479 27.1665C25.8128 27.1347 25.5736 27.1504 25.3446 27.2125C25.1156 27.2747 24.9014 27.3822 24.7146 27.5285C24.5331 27.6705 24.3818 27.8473 24.2697 28.0486C24.1575 28.2499 24.0868 28.4716 24.0616 28.7007Z" fill="#090525"/>
<path d="M16.7336 35.7921C16.6793 35.7923 16.6259 35.7777 16.5793 35.7498L14.5547 34.5517C14.4853 34.5108 14.435 34.4439 14.4149 34.3659C14.3948 34.2879 14.4065 34.2051 14.4474 34.1357C14.4884 34.0663 14.5552 34.0161 14.6332 33.9959C14.7112 33.9758 14.794 33.9875 14.8634 34.0285L16.888 35.2266C16.9448 35.2608 16.9889 35.3126 17.0136 35.3742C17.0382 35.4358 17.0421 35.5037 17.0247 35.5677C17.0072 35.6317 16.9693 35.6883 16.9168 35.7288C16.8643 35.7693 16.8 35.7915 16.7336 35.7921Z" fill="#090525"/>
<path d="M21.4494 38.5851C21.3951 38.5853 21.3417 38.5706 21.2951 38.5428L19.2705 37.3447C19.2361 37.3244 19.2061 37.2976 19.1821 37.2657C19.1581 37.2338 19.1407 37.1975 19.1307 37.1589C19.1208 37.1203 19.1185 37.08 19.1241 37.0406C19.1297 37.0011 19.143 36.963 19.1632 36.9287C19.1835 36.8943 19.2104 36.8643 19.2422 36.8403C19.2741 36.8163 19.3104 36.7989 19.349 36.7889C19.3877 36.779 19.4279 36.7767 19.4674 36.7823C19.5069 36.7879 19.5449 36.8012 19.5792 36.8214L21.6038 38.0209C21.6718 38.0616 21.7211 38.1273 21.741 38.204C21.7609 38.2807 21.7499 38.3621 21.7104 38.4307C21.6841 38.477 21.6463 38.5156 21.6005 38.5427C21.5547 38.5698 21.5026 38.5844 21.4494 38.5851Z" fill="#090525"/>
<path d="M16.0842 39.9616C16.0305 39.9618 15.9778 39.9476 15.9313 39.9207C15.8849 39.8937 15.8464 39.8549 15.8199 39.8082C15.7934 39.7615 15.7797 39.7087 15.7803 39.655C15.7809 39.6013 15.7957 39.5487 15.8233 39.5026L17.0214 37.478C17.0411 37.4426 17.0677 37.4116 17.0996 37.3866C17.1315 37.3617 17.1681 37.3434 17.2072 37.3328C17.2463 37.3222 17.2871 37.3196 17.3272 37.325C17.3673 37.3305 17.406 37.3439 17.4408 37.3645C17.4757 37.3851 17.506 37.4125 17.5301 37.4451C17.5542 37.4776 17.5716 37.5147 17.5811 37.554C17.5907 37.5934 17.5922 37.6343 17.5857 37.6742C17.5792 37.7142 17.5648 37.7525 17.5433 37.7868L16.3465 39.8127C16.3194 39.8581 16.281 39.8956 16.235 39.9217C16.189 39.9478 16.1371 39.9616 16.0842 39.9616Z" fill="#090525"/>
<path d="M18.875 35.2463C18.8207 35.2465 18.7673 35.2318 18.7207 35.2039C18.6527 35.1632 18.6034 35.0976 18.5832 35.021C18.5631 34.9444 18.5737 34.863 18.6127 34.7941L19.8108 32.7695C19.8311 32.7352 19.8579 32.7051 19.8898 32.6811C19.9217 32.6572 19.958 32.6397 19.9966 32.6297C20.0352 32.6198 20.0755 32.6175 20.115 32.6231C20.1545 32.6287 20.1925 32.642 20.2268 32.6623C20.2612 32.6825 20.2912 32.7094 20.3152 32.7413C20.3392 32.7731 20.3566 32.8094 20.3666 32.8481C20.3765 32.8867 20.3788 32.9269 20.3732 32.9664C20.3676 33.0059 20.3543 33.0439 20.3341 33.0783L19.136 35.1028C19.1085 35.1472 19.07 35.1837 19.0243 35.2088C18.9786 35.2339 18.9272 35.2468 18.875 35.2463Z" fill="#090525"/>
<path d="M229.16 249.697H123.012C121.518 249.697 120.044 249.364 118.694 248.722C117.345 248.081 116.156 247.147 115.212 245.989C114.269 244.831 113.595 243.478 113.239 242.027C112.884 240.576 112.856 239.065 113.157 237.601L129.261 159.279C129.917 156.084 131.656 153.214 134.183 151.153C136.71 149.092 139.871 147.965 143.132 147.965H234.186L229.16 249.697Z" fill="white"/>
<path d="M229.159 250H123.012C121.473 250 119.953 249.657 118.563 248.996C117.174 248.335 115.948 247.374 114.976 246.181C114.004 244.988 113.31 243.593 112.943 242.099C112.577 240.604 112.548 239.047 112.859 237.54L128.964 159.217C129.643 155.959 131.421 153.032 134 150.929C136.58 148.825 139.803 147.671 143.132 147.661H234.185C234.226 147.661 234.267 147.669 234.305 147.686C234.343 147.702 234.377 147.725 234.405 147.755C234.433 147.785 234.455 147.82 234.47 147.859C234.484 147.897 234.49 147.938 234.488 147.979L229.468 249.712C229.464 249.79 229.429 249.864 229.372 249.918C229.314 249.972 229.238 250.001 229.159 250ZM143.126 148.268C139.938 148.278 136.851 149.382 134.38 151.397C131.909 153.411 130.205 156.213 129.553 159.333L113.447 237.657C113.155 239.076 113.183 240.543 113.528 241.95C113.873 243.357 114.528 244.67 115.443 245.793C116.359 246.916 117.513 247.822 118.822 248.443C120.13 249.065 121.561 249.388 123.01 249.388H228.867L233.859 148.262L143.126 148.268Z" fill="#090525"/>
<path d="M242.751 249.697H222.151C220.657 249.697 219.182 249.364 217.833 248.723C216.484 248.082 215.294 247.148 214.351 245.99C213.407 244.832 212.733 243.478 212.377 242.027C212.022 240.577 211.993 239.065 212.295 237.601L230.032 151.334C230.228 150.383 230.746 149.528 231.499 148.914C232.251 148.301 233.193 147.965 234.164 147.965H239.461C240.521 147.965 241.542 148.364 242.32 149.082C243.099 149.801 243.579 150.786 243.665 151.842L250.92 240.83C251.013 241.959 250.871 243.095 250.502 244.166C250.134 245.238 249.547 246.221 248.78 247.054C248.012 247.887 247.08 248.552 246.042 249.007C245.005 249.462 243.884 249.697 242.751 249.697Z" fill="white"/>
<path d="M242.751 250H222.15C220.611 249.999 219.092 249.656 217.702 248.996C216.312 248.335 215.087 247.373 214.115 246.18C213.143 244.987 212.449 243.593 212.082 242.099C211.716 240.604 211.687 239.047 211.997 237.54L229.736 151.273C229.948 150.255 230.504 149.34 231.31 148.683C232.116 148.025 233.123 147.665 234.164 147.661H239.461C240.596 147.666 241.687 148.096 242.521 148.864C243.355 149.633 243.872 150.685 243.97 151.816L251.227 240.805C251.322 241.975 251.174 243.153 250.792 244.264C250.409 245.374 249.801 246.393 249.006 247.257C248.21 248.121 247.244 248.811 246.168 249.283C245.093 249.755 243.931 249.999 242.757 250H242.751ZM234.164 148.268C233.263 148.271 232.391 148.583 231.693 149.152C230.996 149.722 230.514 150.513 230.33 151.395L212.593 237.662C212.3 239.082 212.328 240.548 212.673 241.956C213.018 243.363 213.672 244.676 214.588 245.799C215.503 246.923 216.657 247.828 217.966 248.449C219.275 249.071 220.706 249.394 222.155 249.393H242.757C243.848 249.398 244.928 249.174 245.927 248.736C246.926 248.298 247.823 247.655 248.558 246.85C249.297 246.046 249.862 245.099 250.217 244.067C250.573 243.036 250.711 241.942 250.624 240.854L243.367 151.866C243.283 150.888 242.836 149.976 242.115 149.311C241.393 148.645 240.449 148.273 239.467 148.268H234.164Z" fill="#090525"/>
<path d="M236.186 246.939H222.15C221.066 246.938 219.995 246.696 219.016 246.23C218.036 245.765 217.173 245.087 216.488 244.246C215.803 243.406 215.314 242.423 215.056 241.37C214.798 240.317 214.777 239.219 214.996 238.157L220.818 209.836C220.834 209.757 220.881 209.688 220.948 209.644C221.015 209.6 221.097 209.584 221.176 209.6C221.255 209.616 221.324 209.663 221.368 209.73C221.413 209.797 221.428 209.879 221.412 209.958L215.59 238.276C215.388 239.25 215.406 240.256 215.642 241.223C215.878 242.189 216.326 243.09 216.954 243.861C217.582 244.632 218.374 245.254 219.272 245.68C220.171 246.107 221.153 246.328 222.147 246.328H236.183C236.26 246.333 236.332 246.367 236.385 246.424C236.438 246.48 236.467 246.555 236.467 246.632C236.467 246.709 236.438 246.784 236.385 246.84C236.332 246.897 236.26 246.931 236.183 246.936L236.186 246.939Z" fill="#090525"/>
<path d="M242.751 246.938C242.709 246.941 242.667 246.935 242.628 246.921C242.589 246.907 242.553 246.885 242.522 246.857C242.492 246.828 242.468 246.794 242.451 246.756C242.434 246.717 242.426 246.676 242.426 246.634C242.426 246.593 242.434 246.551 242.451 246.513C242.468 246.475 242.492 246.44 242.522 246.412C242.553 246.383 242.589 246.362 242.628 246.348C242.667 246.333 242.709 246.328 242.751 246.331C243.419 246.33 244.08 246.192 244.691 245.924C245.303 245.656 245.853 245.263 246.305 244.772C246.758 244.281 247.104 243.701 247.321 243.07C247.538 242.438 247.622 241.768 247.568 241.102L245.913 220.822C245.907 220.742 245.932 220.663 245.985 220.601C246.037 220.54 246.111 220.502 246.191 220.495C246.272 220.489 246.351 220.514 246.413 220.566C246.474 220.619 246.512 220.693 246.519 220.773L248.173 241.053C248.234 241.803 248.139 242.556 247.895 243.267C247.65 243.978 247.261 244.631 246.751 245.184C246.242 245.737 245.623 246.178 244.935 246.48C244.246 246.782 243.503 246.938 242.751 246.938Z" fill="#090525"/>
<path d="M241.615 164.665C241.54 164.665 241.467 164.637 241.411 164.587C241.355 164.536 241.32 164.467 241.313 164.392L240.969 160.165C240.962 160.085 240.988 160.005 241.04 159.944C241.092 159.883 241.167 159.844 241.247 159.838C241.327 159.831 241.407 159.857 241.468 159.909C241.529 159.961 241.567 160.036 241.574 160.116L241.918 164.343C241.925 164.422 241.9 164.501 241.849 164.562C241.797 164.623 241.724 164.662 241.645 164.669L241.615 164.665Z" fill="#090525"/>
<path d="M228.166 175.912C228.146 175.914 228.125 175.914 228.105 175.912C228.026 175.895 227.957 175.848 227.912 175.781C227.868 175.713 227.852 175.631 227.868 175.552L232.733 151.895C232.802 151.566 232.981 151.271 233.242 151.058C233.502 150.846 233.828 150.73 234.164 150.729H239.461C239.828 150.731 240.18 150.869 240.449 151.118C240.718 151.366 240.885 151.706 240.916 152.071L241.143 154.839C241.146 154.879 241.142 154.919 241.129 154.957C241.117 154.995 241.098 155.03 241.072 155.06C241.046 155.091 241.014 155.116 240.979 155.134C240.944 155.152 240.905 155.163 240.865 155.166C240.825 155.17 240.785 155.165 240.747 155.153C240.709 155.141 240.674 155.121 240.644 155.095C240.614 155.069 240.589 155.038 240.57 155.002C240.552 154.967 240.541 154.928 240.538 154.888L240.311 152.121C240.293 151.907 240.196 151.709 240.039 151.564C239.881 151.418 239.675 151.337 239.461 151.336H234.164C233.967 151.337 233.777 151.406 233.625 151.53C233.472 151.654 233.368 151.827 233.328 152.02L228.464 175.677C228.448 175.744 228.41 175.803 228.356 175.846C228.302 175.889 228.235 175.912 228.166 175.912Z" fill="#090525"/>
<path d="M214.697 189.382H131.582C131.505 189.377 131.433 189.343 131.38 189.286C131.327 189.23 131.298 189.156 131.298 189.078C131.298 189.001 131.327 188.927 131.38 188.87C131.433 188.814 131.505 188.78 131.582 188.774H214.697C215.826 188.777 216.923 188.398 217.809 187.697C218.695 186.996 219.317 186.016 219.574 184.916L226.9 153.974C226.922 153.899 226.971 153.835 227.038 153.796C227.105 153.756 227.185 153.744 227.26 153.762C227.336 153.779 227.402 153.825 227.445 153.89C227.488 153.955 227.504 154.034 227.491 154.11L220.164 185.054C219.876 186.288 219.179 187.387 218.186 188.173C217.193 188.959 215.963 189.385 214.697 189.382Z" fill="#090525"/>
<path d="M182.617 189.079L180.295 198.474C180.112 199.246 179.674 199.934 179.052 200.426C178.43 200.918 177.66 201.186 176.867 201.186H160.405C159.987 201.186 159.575 201.089 159.201 200.903C158.826 200.717 158.5 200.447 158.247 200.115C157.995 199.782 157.822 199.395 157.744 198.985C157.665 198.574 157.683 198.151 157.795 197.748L160.206 189.079H182.617Z" fill="white"/>
<path d="M176.861 201.49H160.4C159.935 201.49 159.476 201.382 159.06 201.175C158.643 200.968 158.28 200.668 157.999 200.298C157.718 199.927 157.526 199.497 157.439 199.04C157.352 198.583 157.372 198.113 157.497 197.665L159.908 188.994C159.926 188.93 159.964 188.874 160.017 188.834C160.069 188.794 160.134 188.772 160.2 188.771H182.617C182.663 188.772 182.708 188.782 182.75 188.802C182.791 188.823 182.828 188.852 182.856 188.888C182.884 188.925 182.904 188.967 182.914 189.012C182.924 189.057 182.923 189.104 182.912 189.149L180.59 198.545C180.393 199.385 179.918 200.134 179.24 200.669C178.563 201.204 177.724 201.494 176.861 201.49ZM160.431 189.382L158.081 197.83C157.982 198.188 157.966 198.564 158.037 198.929C158.107 199.294 158.26 199.637 158.485 199.933C158.71 200.228 159 200.468 159.333 200.632C159.666 200.797 160.032 200.883 160.404 200.882H176.865C177.591 200.884 178.295 200.64 178.864 200.19C179.433 199.74 179.833 199.11 179.998 198.404L182.233 189.388L160.431 189.382Z" fill="#090525"/>
<path d="M207.111 242.131H118.815C118.735 242.131 118.657 242.099 118.601 242.042C118.544 241.985 118.512 241.908 118.512 241.828C118.512 241.747 118.544 241.67 118.601 241.613C118.657 241.556 118.735 241.524 118.815 241.524H207.111C207.192 241.524 207.269 241.556 207.326 241.613C207.383 241.67 207.415 241.747 207.415 241.828C207.415 241.908 207.383 241.985 207.326 242.042C207.269 242.099 207.192 242.131 207.111 242.131Z" fill="#090525"/>
<path d="M164.101 144.41H157.208C156.314 144.411 155.457 144.766 154.824 145.399C154.192 146.031 153.837 146.889 153.837 147.783H167.472C167.472 146.889 167.117 146.031 166.485 145.399C165.852 144.766 164.995 144.411 164.101 144.41Z" fill="white"/>
<path d="M167.473 148.088H153.837C153.798 148.088 153.758 148.08 153.721 148.065C153.684 148.05 153.651 148.028 153.623 147.999C153.594 147.971 153.572 147.938 153.557 147.901C153.542 147.864 153.534 147.825 153.534 147.785C153.535 146.81 153.923 145.876 154.612 145.187C155.301 144.498 156.235 144.11 157.209 144.108H164.101C165.076 144.11 166.01 144.498 166.699 145.187C167.387 145.876 167.775 146.81 167.776 147.785C167.776 147.825 167.768 147.864 167.753 147.901C167.738 147.938 167.716 147.971 167.688 147.999C167.659 148.028 167.626 148.05 167.589 148.065C167.552 148.08 167.513 148.088 167.473 148.088ZM154.156 147.481H167.154C167.078 146.724 166.724 146.022 166.16 145.511C165.596 145 164.862 144.716 164.101 144.715H157.209C156.448 144.716 155.715 145 155.151 145.51C154.587 146.021 154.232 146.723 154.156 147.48V147.481Z" fill="#090525"/>
<path d="M219.339 144.41H212.447C211.552 144.411 210.695 144.766 210.063 145.399C209.43 146.031 209.075 146.889 209.075 147.783H222.71C222.71 146.889 222.355 146.031 221.723 145.399C221.091 144.766 220.233 144.411 219.339 144.41Z" fill="#090525"/>
<path d="M222.71 148.088H209.075C209.035 148.088 208.995 148.08 208.959 148.065C208.922 148.05 208.888 148.027 208.86 147.999C208.832 147.971 208.81 147.937 208.795 147.901C208.779 147.864 208.771 147.824 208.771 147.785C208.773 146.81 209.16 145.876 209.849 145.187C210.538 144.498 211.472 144.11 212.446 144.108H219.338C220.313 144.109 221.248 144.497 221.937 145.186C222.626 145.876 223.014 146.81 223.015 147.785C223.015 147.825 223.007 147.864 222.991 147.901C222.976 147.938 222.954 147.971 222.925 148C222.897 148.028 222.863 148.05 222.826 148.065C222.79 148.08 222.75 148.088 222.71 148.088ZM209.393 147.481H222.392C222.316 146.724 221.962 146.022 221.397 145.511C220.833 144.999 220.1 144.716 219.338 144.715H212.446C211.685 144.716 210.952 145 210.388 145.51C209.824 146.021 209.469 146.723 209.393 147.48V147.481Z" fill="#090525"/>
<path d="M217.539 144.228L218.65 137.628C219.438 132.948 216.284 129.158 211.605 129.158H170.276C165.597 129.158 161.165 132.953 160.378 137.628L159.268 144.228H162.43L163.295 139.091C163.908 135.448 167.356 132.494 170.998 132.494H209.758C213.399 132.494 215.855 135.448 215.242 139.091L214.377 144.228H217.539Z" fill="white"/>
<path d="M217.539 144.535H214.377C214.333 144.535 214.289 144.525 214.249 144.507C214.209 144.489 214.173 144.462 214.144 144.429C214.116 144.395 214.095 144.355 214.084 144.312C214.072 144.27 214.07 144.225 214.078 144.181L214.942 139.045C215.226 137.355 214.833 135.774 213.834 134.594C212.858 133.438 211.411 132.803 209.758 132.803H170.998C167.504 132.803 164.183 135.649 163.594 139.146L162.729 144.282C162.717 144.353 162.681 144.418 162.626 144.464C162.571 144.51 162.502 144.536 162.43 144.535H159.267C159.223 144.535 159.18 144.525 159.14 144.507C159.1 144.489 159.064 144.462 159.035 144.429C159.007 144.395 158.986 144.355 158.974 144.312C158.963 144.27 158.961 144.225 158.968 144.181L160.079 137.582C160.889 132.769 165.463 128.854 170.276 128.854H211.605C213.935 128.854 215.985 129.758 217.373 131.4C218.789 133.075 219.349 135.306 218.95 137.684L217.84 144.284C217.828 144.355 217.791 144.419 217.736 144.465C217.681 144.511 217.611 144.536 217.539 144.535ZM214.736 143.929H217.284L218.351 137.582C218.721 135.384 218.214 133.328 216.909 131.792C215.638 130.289 213.754 129.46 211.605 129.46H170.276C165.746 129.46 161.441 133.149 160.677 137.683L159.627 143.929H162.173L162.993 139.045C163.628 135.267 167.218 132.195 170.996 132.195H209.755C211.59 132.195 213.202 132.908 214.296 134.202C215.411 135.52 215.852 137.276 215.538 139.146L214.736 143.929Z" fill="#090525"/>
<path d="M209.553 126.421H173.248C171.785 126.421 170.399 127.607 170.153 129.071L169.619 132.241C169.373 133.704 170.359 134.891 171.822 134.891H208.127C209.59 134.891 210.975 133.704 211.222 132.241L211.755 129.068C212.003 127.607 211.016 126.421 209.553 126.421Z" fill="white"/>
<path d="M208.126 135.196H171.822C171.451 135.205 171.082 135.132 170.743 134.981C170.403 134.831 170.101 134.607 169.859 134.326C169.616 134.033 169.441 133.69 169.346 133.321C169.252 132.952 169.24 132.566 169.312 132.192L169.846 129.02C170.12 127.419 171.639 126.116 173.241 126.116H209.546C209.917 126.107 210.285 126.181 210.625 126.331C210.964 126.482 211.266 126.705 211.509 126.986C211.752 127.28 211.926 127.623 212.021 127.992C212.115 128.361 212.127 128.746 212.055 129.12L211.521 132.293C211.252 133.895 209.729 135.196 208.126 135.196ZM173.248 126.727C171.928 126.727 170.674 127.802 170.452 129.123L169.917 132.296C169.861 132.583 169.869 132.878 169.939 133.162C170.01 133.445 170.143 133.709 170.327 133.936C170.514 134.149 170.745 134.319 171.005 134.433C171.265 134.546 171.547 134.6 171.83 134.591H208.135C209.454 134.591 210.708 133.516 210.93 132.194L211.464 129.022C211.52 128.735 211.513 128.44 211.442 128.156C211.371 127.873 211.239 127.609 211.054 127.382C210.868 127.169 210.636 126.999 210.376 126.886C210.116 126.773 209.835 126.719 209.551 126.728L173.248 126.727Z" fill="#090525"/>
<path d="M187.311 135.197H171.822C171.451 135.206 171.082 135.132 170.743 134.982C170.403 134.831 170.101 134.607 169.859 134.327C169.616 134.033 169.441 133.69 169.346 133.321C169.252 132.952 169.24 132.567 169.312 132.193L169.846 129.021C170.12 127.419 171.639 126.116 173.241 126.116H185.351C185.428 126.121 185.5 126.156 185.553 126.212C185.605 126.269 185.635 126.343 185.635 126.42C185.635 126.497 185.605 126.572 185.553 126.628C185.5 126.685 185.428 126.719 185.351 126.724H173.241C171.922 126.724 170.667 127.799 170.445 129.12L169.911 132.294C169.854 132.58 169.862 132.876 169.933 133.159C170.003 133.443 170.136 133.707 170.32 133.933C170.507 134.147 170.738 134.317 170.998 134.43C171.258 134.544 171.54 134.598 171.823 134.589H187.312C187.393 134.589 187.47 134.621 187.527 134.678C187.584 134.735 187.616 134.812 187.616 134.892C187.616 134.973 187.584 135.05 187.527 135.107C187.47 135.163 187.393 135.195 187.312 135.195L187.311 135.197Z" fill="#090525"/>
<path d="M221.956 242.131C221.889 242.131 221.824 242.109 221.771 242.068C221.718 242.027 221.68 241.97 221.662 241.905C221.645 241.841 221.65 241.772 221.676 241.71C221.702 241.649 221.748 241.597 221.806 241.564L235.877 233.539V154.044C235.877 153.963 235.909 153.886 235.966 153.829C236.022 153.772 236.1 153.74 236.18 153.74C236.261 153.74 236.338 153.772 236.395 153.829C236.451 153.886 236.483 153.963 236.483 154.044V233.716C236.484 233.769 236.47 233.822 236.443 233.868C236.416 233.915 236.377 233.953 236.33 233.979L222.101 242.091C222.057 242.117 222.007 242.13 221.956 242.131Z" fill="#090525"/>
<path d="M221.401 145.977C221.401 145.977 227.736 148.337 230.22 146.35C232.703 144.362 226.37 141.007 224.88 141.255C223.389 141.504 221.401 145.977 221.401 145.977Z" fill="#090525"/>
<path d="M189.572 196.634L195.533 207.071L198.762 202.599L193.546 192.41L189.572 196.634Z" fill="white"/>
<path d="M195.534 207.377H195.517C195.467 207.374 195.417 207.358 195.374 207.332C195.331 207.305 195.295 207.268 195.27 207.224L189.31 196.787C189.277 196.73 189.264 196.665 189.272 196.601C189.279 196.536 189.307 196.476 189.352 196.429L193.326 192.205C193.359 192.169 193.401 192.142 193.446 192.126C193.492 192.109 193.541 192.105 193.59 192.111C193.638 192.118 193.683 192.137 193.723 192.165C193.763 192.193 193.795 192.231 193.817 192.274L199.034 202.461C199.059 202.511 199.07 202.567 199.066 202.623C199.062 202.679 199.042 202.733 199.009 202.778L195.78 207.251C195.752 207.29 195.715 207.322 195.672 207.343C195.629 207.365 195.582 207.377 195.534 207.377ZM189.948 196.681L195.564 206.517L198.408 202.577L193.472 192.938L189.948 196.681Z" fill="#090525"/>
<path d="M193.468 205.479C195.041 208.721 199.019 216.585 202.854 220.354C203.067 220.564 203.331 220.714 203.62 220.79C203.91 220.866 204.214 220.864 204.502 220.786C204.791 220.707 205.054 220.554 205.265 220.342C205.476 220.13 205.628 219.867 205.705 219.578C206.904 215.038 207.703 205.579 203.232 198.13C203.232 198.13 201.106 197.881 197.132 198.626L198.016 202.354L197.529 202.004C197.172 201.749 196.74 201.621 196.302 201.641C195.864 201.66 195.445 201.826 195.112 202.112L193.966 203.094C193.632 203.381 193.402 203.771 193.312 204.202C193.222 204.634 193.277 205.083 193.468 205.479Z" fill="#090525"/>
<path d="M203.48 219.302C203.444 219.302 203.408 219.296 203.374 219.283C203.298 219.254 203.237 219.197 203.204 219.123C203.171 219.05 203.168 218.966 203.196 218.891C206.591 209.917 202.007 199.347 201.966 199.242C201.934 199.168 201.932 199.085 201.961 199.01C201.99 198.935 202.047 198.874 202.121 198.841C202.194 198.809 202.278 198.807 202.353 198.836C202.428 198.865 202.489 198.922 202.521 198.996C202.569 199.104 207.251 209.902 203.77 219.106C203.748 219.165 203.708 219.215 203.656 219.25C203.604 219.285 203.543 219.303 203.48 219.302Z" fill="white"/>
<path d="M195.781 210.303C195.716 210.302 195.653 210.281 195.601 210.241C195.549 210.202 195.511 210.147 195.492 210.085C195.473 210.022 195.476 209.955 195.498 209.894C195.52 209.833 195.562 209.78 195.616 209.744L198.597 207.81C198.63 207.788 198.668 207.773 198.707 207.766C198.746 207.759 198.787 207.759 198.826 207.767C198.865 207.776 198.902 207.792 198.934 207.814C198.967 207.837 198.995 207.866 199.017 207.899C199.039 207.933 199.054 207.97 199.061 208.009C199.068 208.048 199.068 208.089 199.059 208.128C199.051 208.167 199.035 208.204 199.012 208.237C198.99 208.269 198.961 208.298 198.928 208.319L195.944 210.254C195.896 210.285 195.839 210.302 195.781 210.303Z" fill="white"/>
<path d="M197.271 212.95C197.207 212.951 197.145 212.932 197.093 212.894C197.04 212.857 197.001 212.805 196.981 212.744C196.96 212.683 196.96 212.618 196.979 212.557C196.998 212.496 197.036 212.442 197.087 212.404L199.819 210.306C199.851 210.281 199.887 210.264 199.925 210.253C199.964 210.243 200.004 210.241 200.044 210.246C200.083 210.251 200.121 210.264 200.156 210.284C200.19 210.304 200.22 210.331 200.245 210.362C200.269 210.394 200.287 210.43 200.297 210.469C200.307 210.507 200.31 210.547 200.304 210.587C200.299 210.626 200.286 210.664 200.266 210.699C200.246 210.733 200.22 210.764 200.188 210.788L197.456 212.885C197.403 212.927 197.338 212.95 197.271 212.95Z" fill="white"/>
<path d="M170.695 196.883C170.695 197.131 165.23 209.059 165.23 209.059L171.439 209.556L175.662 199.368L170.695 196.883Z" fill="white"/>
<path d="M171.439 209.859H171.415L165.206 209.362C165.157 209.358 165.11 209.343 165.069 209.317C165.028 209.291 164.993 209.255 164.968 209.213C164.944 209.171 164.93 209.124 164.927 209.075C164.925 209.026 164.934 208.977 164.954 208.933C167.064 204.329 170.24 197.336 170.396 196.832C170.404 196.785 170.423 196.741 170.451 196.703C170.479 196.665 170.515 196.634 170.558 196.613C170.6 196.591 170.646 196.58 170.694 196.58C170.741 196.58 170.788 196.591 170.83 196.612L175.797 199.097C175.866 199.131 175.92 199.19 175.947 199.262C175.974 199.334 175.972 199.414 175.942 199.485L171.72 209.674C171.696 209.729 171.657 209.776 171.608 209.809C171.558 209.842 171.499 209.859 171.439 209.859ZM165.687 208.791L171.244 209.235L175.273 199.512L170.853 197.302C170.519 198.13 169.403 200.683 165.687 208.791Z" fill="#090525"/>
<path d="M170.944 206.573C170.944 206.573 169.702 203.591 166.474 205.083C166.474 205.083 160.547 213.648 158.343 220.721C157.72 222.721 159.773 224.523 161.682 223.661C166.149 221.643 173.149 217.408 177.155 209.556C177.155 209.556 175.913 206.325 173.925 204.834L170.944 206.573Z" fill="#090525"/>
<path d="M160.164 221.809C160.016 221.81 159.868 221.802 159.721 221.784C159.642 221.772 159.57 221.729 159.522 221.664C159.474 221.6 159.453 221.519 159.465 221.439C159.477 221.359 159.52 221.288 159.585 221.239C159.649 221.191 159.73 221.171 159.81 221.183C159.878 221.192 166.477 221.955 175.417 209.625C175.464 209.56 175.535 209.516 175.615 209.504C175.694 209.491 175.776 209.511 175.841 209.558C175.906 209.605 175.95 209.676 175.963 209.756C175.975 209.835 175.956 209.917 175.908 209.982C167.939 220.977 161.828 221.809 160.164 221.809Z" fill="white"/>
<path d="M165.229 215.078C165.176 215.078 165.124 215.064 165.078 215.037L162.097 213.296C162.027 213.256 161.977 213.189 161.956 213.111C161.936 213.034 161.947 212.951 161.988 212.881C162.028 212.812 162.095 212.761 162.173 212.74C162.251 212.72 162.333 212.731 162.403 212.772L165.384 214.512C165.442 214.546 165.487 214.598 165.512 214.659C165.538 214.721 165.542 214.79 165.524 214.854C165.507 214.919 165.468 214.976 165.415 215.016C165.361 215.057 165.296 215.078 165.229 215.078Z" fill="white"/>
<path d="M166.72 212.842C166.672 212.84 166.625 212.827 166.583 212.805L163.348 211.066C163.312 211.047 163.28 211.022 163.253 210.991C163.227 210.96 163.207 210.925 163.195 210.886C163.183 210.847 163.178 210.807 163.182 210.766C163.186 210.726 163.198 210.687 163.217 210.651C163.236 210.615 163.262 210.584 163.294 210.558C163.325 210.533 163.362 210.514 163.401 210.503C163.44 210.492 163.48 210.489 163.521 210.493C163.561 210.498 163.6 210.511 163.635 210.531L166.864 212.27C166.924 212.302 166.972 212.353 166.999 212.415C167.027 212.478 167.033 212.547 167.016 212.613C166.999 212.679 166.961 212.737 166.907 212.778C166.854 212.82 166.787 212.842 166.72 212.842Z" fill="white"/>
<path d="M202.487 136.749C202.487 136.749 186.299 139.641 174.632 151.879C173.186 153.397 172.172 155.274 171.693 157.315C171.214 159.356 171.289 161.488 171.909 163.491C174.505 171.856 180.144 187.133 189.572 198.622L196.774 192.41C196.774 192.41 195.036 177.998 190.316 169.05C185.596 160.101 213.167 140.72 213.167 140.72L202.487 136.749Z" fill="white"/>
<path d="M189.572 198.927H189.546C189.506 198.923 189.466 198.912 189.43 198.893C189.394 198.874 189.363 198.848 189.337 198.816C179.83 187.23 174.155 171.767 171.62 163.582C170.984 161.528 170.907 159.341 171.398 157.247C171.889 155.153 172.929 153.228 174.412 151.67C186.013 139.5 202.271 136.479 202.434 136.45C202.488 136.44 202.543 136.446 202.594 136.465L213.274 140.44C213.326 140.46 213.371 140.493 213.405 140.536C213.439 140.58 213.461 140.632 213.468 140.686C213.475 140.741 213.467 140.796 213.445 140.847C213.423 140.898 213.387 140.941 213.343 140.973C213.069 141.166 186.043 160.302 190.586 168.912C195.277 177.804 197.058 192.23 197.076 192.375C197.082 192.424 197.076 192.474 197.058 192.521C197.039 192.567 197.01 192.609 196.972 192.641L189.77 198.854C189.715 198.901 189.645 198.927 189.572 198.927ZM202.461 137.062C201.215 137.305 185.894 140.503 174.852 152.089C173.443 153.568 172.455 155.396 171.989 157.385C171.522 159.374 171.596 161.451 172.2 163.402C174.706 171.489 180.287 186.711 189.609 198.19L196.453 192.289C196.244 190.686 194.422 177.485 190.049 169.201C185.547 160.668 208.777 143.509 212.526 140.816L202.461 137.062Z" fill="#090525"/>
<path d="M168.707 199.118L177.152 201.603C177.152 201.603 192.551 169.052 197.023 164.329C201.494 159.606 210.187 151.905 219.378 149.165C228.569 146.424 228.568 139.474 228.568 139.474L212.919 135.001C212.919 135.001 191.061 144.444 183.859 155.128C176.656 165.812 168.707 199.118 168.707 199.118Z" fill="white"/>
<path d="M177.153 201.913C177.124 201.912 177.095 201.908 177.067 201.9L168.622 199.41C168.547 199.388 168.484 199.339 168.445 199.271C168.406 199.204 168.395 199.125 168.413 199.049C168.492 198.714 176.456 165.579 183.608 154.966C190.777 144.331 212.581 134.824 212.799 134.729C212.863 134.701 212.936 134.696 213.003 134.716L228.652 139.189C228.715 139.207 228.769 139.246 228.808 139.299C228.847 139.351 228.868 139.415 228.868 139.481C228.868 139.552 228.76 146.697 219.461 149.463C209.198 152.515 199.858 161.773 197.239 164.538C192.853 169.171 177.577 201.408 177.43 201.734C177.406 201.787 177.367 201.832 177.318 201.864C177.269 201.896 177.212 201.913 177.153 201.913ZM169.071 198.907L176.995 201.229C178.497 198.053 192.506 168.656 196.803 164.112C199.448 161.318 208.884 151.966 219.291 148.872C227.236 146.508 228.148 140.891 228.252 139.697L212.941 135.325C211.338 136.033 190.936 145.176 184.116 155.301C177.365 165.301 169.862 195.661 169.071 198.907Z" fill="#090525"/>
<path d="M241.234 113.885C237.012 105.437 230.058 104.194 230.058 104.194L218.134 103.201C214.406 102.948 210.443 105.25 208.972 108.688L198.016 134.262C198.016 134.262 200.252 140.225 210.186 141.22C220.121 142.214 226.953 141.593 230.182 145.568C232.311 148.19 232.242 130.707 231.018 116.88L241.234 113.885Z" fill="white"/>
<path d="M230.583 146.136C230.402 146.136 230.181 146.049 229.946 145.759C227.525 142.78 222.853 142.46 216.386 142.019C214.514 141.89 212.393 141.746 210.156 141.522C200.148 140.52 197.826 134.619 197.725 134.369C197.696 134.296 197.696 134.215 197.725 134.142L208.68 108.568C210.182 105.072 214.244 102.635 218.143 102.897L230.07 103.892C230.17 103.908 237.252 105.258 241.494 113.75C241.514 113.789 241.525 113.833 241.526 113.877C241.527 113.922 241.518 113.966 241.501 114.007C241.483 114.047 241.456 114.084 241.423 114.113C241.39 114.143 241.35 114.164 241.308 114.177L231.335 117.102C232.192 126.938 232.898 145.244 230.797 146.093C230.729 146.121 230.656 146.135 230.583 146.136ZM198.342 134.262C198.707 135.056 201.331 140.028 210.212 140.918C212.44 141.14 214.557 141.285 216.423 141.412C223.043 141.864 227.826 142.191 230.413 145.374C230.524 145.511 230.584 145.526 230.584 145.526C230.611 145.512 231.529 145.046 231.565 135.843C231.588 130.272 231.268 123.192 230.712 116.905C230.706 116.835 230.724 116.765 230.764 116.707C230.803 116.649 230.862 116.607 230.93 116.587L240.794 113.694C236.673 105.77 230.067 104.502 230.002 104.49L218.107 103.5C214.46 103.252 210.648 105.534 209.248 108.804L198.342 134.262Z" fill="#090525"/>
<path d="M209.35 135.908L214.814 133.423L219.037 135.162C219.037 135.162 241.923 132.869 231.794 116.654C231.75 116.583 239.52 114.388 239.52 114.388C239.52 114.388 248.751 136.405 219.534 136.903C219.534 136.903 218.044 137.399 216.056 136.405C214.068 135.412 210.591 137.399 209.35 135.908Z" fill="white"/>
<path d="M218.538 137.332C217.627 137.321 216.73 137.097 215.921 136.678C215.078 136.255 213.872 136.434 212.719 136.607C211.264 136.824 209.888 137.029 209.116 136.102C209.087 136.066 209.066 136.024 209.055 135.979C209.044 135.934 209.044 135.886 209.055 135.841C209.065 135.796 209.086 135.753 209.115 135.717C209.144 135.681 209.182 135.652 209.224 135.633L214.688 133.148C214.727 133.131 214.768 133.122 214.809 133.122C214.851 133.122 214.892 133.131 214.93 133.148L219.081 134.857C220.063 134.742 230.428 133.398 233.321 127.499C234.747 124.592 234.147 120.999 231.537 116.82C231.512 116.779 231.496 116.734 231.492 116.686C231.487 116.639 231.494 116.591 231.511 116.546C231.583 116.358 231.601 116.314 239.434 114.1C239.506 114.079 239.582 114.086 239.649 114.117C239.716 114.149 239.769 114.205 239.798 114.273C239.833 114.361 243.362 122.971 239.046 129.582C235.855 134.47 229.305 137.036 219.578 137.208C219.238 137.296 218.889 137.337 218.538 137.332ZM214.576 135.809C215.131 135.791 215.682 135.902 216.186 136.134C218.023 137.053 219.418 136.619 219.432 136.615C219.461 136.605 219.491 136.6 219.522 136.598C229.059 136.437 235.455 133.963 238.534 129.247C242.272 123.523 239.862 116.193 239.329 114.755C236.803 115.471 233.31 116.473 232.24 116.805C234.803 121.04 235.347 124.728 233.858 127.757C230.686 134.223 219.534 135.407 219.06 135.458C219.01 135.463 218.96 135.456 218.914 135.437L214.816 133.747L209.914 135.977C210.544 136.309 211.553 136.158 212.624 135.999C213.272 135.888 213.927 135.825 214.583 135.809H214.576Z" fill="#090525"/>
<path d="M188.521 137.881H210.065L194.094 113.306C193.842 112.926 193.5 112.614 193.098 112.4C192.695 112.185 192.246 112.074 191.79 112.076H174.304C173.193 112.076 172.52 113.266 173.113 114.179L188.521 137.881Z" fill="#090525"/>
<path d="M188.63 122.184C189.076 121.498 188.403 120.268 187.126 119.438C185.849 118.607 184.452 118.49 184.005 119.176C183.559 119.863 184.232 121.092 185.509 121.923C186.786 122.753 188.183 122.87 188.63 122.184Z" fill="white"/>
<path d="M187.59 122.951C186.323 122.951 184.734 122.033 183.973 120.862C183.552 120.214 183.457 119.572 183.712 119.102C183.943 118.677 184.42 118.442 185.055 118.442C186.321 118.442 187.91 119.36 188.672 120.531C189.093 121.179 189.189 121.821 188.933 122.291C188.704 122.709 188.226 122.951 187.59 122.951ZM185.055 119.05C184.645 119.05 184.372 119.172 184.245 119.392C184.1 119.665 184.186 120.075 184.481 120.531C185.12 121.513 186.544 122.343 187.59 122.343C187.992 122.343 188.273 122.222 188.399 122.001C188.545 121.728 188.459 121.318 188.163 120.862C187.525 119.873 186.108 119.043 185.055 119.043V119.05Z" fill="#090525"/>
<path d="M223.18 139.729H190.038C189.616 139.729 189.211 139.561 188.912 139.262C188.614 138.964 188.446 138.559 188.446 138.137V137.727H224.771V138.137C224.771 138.346 224.73 138.553 224.65 138.746C224.57 138.939 224.453 139.115 224.305 139.262C224.158 139.41 223.982 139.527 223.789 139.607C223.596 139.687 223.389 139.729 223.18 139.729Z" fill="#090525"/>
<path d="M232.293 46.046C241.414 43.1648 253.209 56.2563 250.833 67.0241C250.179 69.994 250.903 74.4859 247.649 76.1266C241.877 79.0364 238.247 75.5132 236.765 77.8533C235.479 79.882 240.043 82.8055 239.497 87.0473C238.677 93.3506 227.367 96.3943 226.084 96.7386C225.128 96.9968 211.625 100.446 205.22 93.2604C203.677 91.5296 201.654 88.1812 202.736 86.0542C203.767 84.0255 206.935 84.4613 207.703 82.326C208.37 80.4777 206.247 79.4421 206.461 77.3561C206.871 73.3356 215.183 73.1211 216.149 68.908C216.92 65.5337 212.095 63.5514 212.919 60.2099C213.584 57.5159 217.058 57.4435 222.606 53.9981C229.25 49.8725 228.838 47.1375 232.293 46.046Z" fill="#090525"/>
<path d="M222.11 102.459C221.887 102.348 218.9 98.8209 217.151 96.743C217.288 96.1665 217.263 95.9821 217.217 95.1036C217.217 95.1036 218.122 94.1965 217.763 93.0162C217.34 91.6501 216.039 92.743 216.039 92.743C216.039 92.743 215.437 91.6897 213.17 93.5066C210.904 95.3236 208.512 93.1132 208.512 93.1132C208.512 93.1132 208.512 94.4793 209.71 96.1269C210.37 97.0394 210.482 98.2443 210.513 99.37L211.782 99.1883C212.48 100.016 212.999 100.418 213.96 100.819C214.53 100.68 215.059 100.409 215.505 100.028L216.896 103.198L215.478 103.942C215.478 103.942 215.158 105.932 218.883 106.427C222.609 106.923 225.59 103.942 225.59 103.942C225.59 103.942 223.599 103.201 222.11 102.459Z" fill="white"/>
<path d="M219.736 106.791C219.436 106.791 219.137 106.771 218.84 106.732C217.254 106.521 216.157 106.019 215.579 105.24C215.275 104.862 215.129 104.381 215.169 103.898C215.177 103.851 215.195 103.807 215.222 103.769C215.25 103.731 215.286 103.699 215.328 103.678L216.496 103.063L215.373 100.504C214.962 100.796 214.498 101.005 214.007 101.12C213.949 101.131 213.89 101.125 213.836 101.103C212.901 100.716 212.351 100.32 211.65 99.5151L210.546 99.6736C210.504 99.6798 210.461 99.6769 210.42 99.6651C210.379 99.6533 210.341 99.6329 210.309 99.6053C210.275 99.5782 210.249 99.5443 210.23 99.5058C210.211 99.4674 210.201 99.4253 210.201 99.3826C210.169 98.2774 210.057 97.1408 209.455 96.3074C208.216 94.5943 208.199 93.1763 208.199 93.1162C208.199 93.057 208.216 92.999 208.248 92.9494C208.28 92.8998 208.326 92.8606 208.38 92.8368C208.435 92.813 208.495 92.8056 208.553 92.8154C208.611 92.8252 208.665 92.8519 208.709 92.8921C208.799 92.9755 210.941 94.9003 212.971 93.2719C214.049 92.4085 214.937 92.0424 215.61 92.1626C215.771 92.1918 215.924 92.2557 216.057 92.3498C216.33 92.1695 216.821 91.929 217.287 92.0656C217.643 92.1695 217.897 92.4604 218.042 92.9277C218.384 94.0342 217.769 94.9154 217.519 95.2132V95.2255C217.557 95.9208 217.571 96.1818 217.471 96.6572C221.456 101.391 222.142 102.094 222.253 102.194C223.709 102.919 225.668 103.654 225.68 103.661C225.728 103.679 225.77 103.709 225.803 103.747C225.836 103.785 225.859 103.832 225.87 103.881C225.881 103.931 225.879 103.982 225.865 104.031C225.85 104.08 225.824 104.124 225.788 104.16C225.686 104.276 223.13 106.791 219.736 106.791ZM215.774 104.133C215.798 104.412 215.904 104.678 216.079 104.896C216.553 105.519 217.537 105.945 218.921 106.126C221.728 106.5 224.132 104.78 225.013 104.045C224.33 103.772 223.024 103.247 221.974 102.723C221.873 102.672 221.662 102.566 216.919 96.9304C216.889 96.8943 216.868 96.8517 216.856 96.806C216.845 96.7603 216.845 96.7127 216.855 96.6667C216.971 96.164 216.963 96.0069 216.921 95.2555V95.1189C216.918 95.0765 216.925 95.034 216.94 94.9942C216.955 94.9544 216.978 94.9182 217.008 94.888C217.039 94.8566 217.778 94.0889 217.475 93.1121C217.395 92.8512 217.278 92.7022 217.13 92.6531C216.848 92.5711 216.408 92.8402 216.239 92.9837C216.205 93.0122 216.165 93.0329 216.122 93.0444C216.079 93.0559 216.034 93.0579 215.99 93.0502C215.946 93.0425 215.904 93.0254 215.868 93C215.831 92.9746 215.801 92.9415 215.778 92.9031C215.701 92.8221 215.595 92.7733 215.483 92.7665C215.21 92.7241 214.561 92.7979 213.365 93.7569C211.64 95.1394 209.843 94.3771 208.927 93.802C209.129 94.5821 209.48 95.3159 209.96 95.9632C210.594 96.8389 210.758 97.9427 210.809 99.0356L211.743 98.899C211.794 98.8921 211.845 98.898 211.893 98.9162C211.94 98.9343 211.983 98.9641 212.016 99.0028C212.681 99.7924 213.154 100.156 213.987 100.506C214.474 100.365 214.926 100.124 215.314 99.7992C215.35 99.7691 215.393 99.7478 215.438 99.7371C215.484 99.7265 215.532 99.7267 215.578 99.7378C215.623 99.7487 215.665 99.7699 215.701 99.7997C215.737 99.8296 215.766 99.8672 215.785 99.9099L217.176 103.079C217.207 103.15 217.21 103.229 217.185 103.302C217.159 103.374 217.107 103.434 217.039 103.47L215.774 104.133Z" fill="#090525"/>
<path d="M215.502 100.031L215.912 99.6611L215.502 100.031Z" fill="white"/>
<path d="M215.503 100.335C215.46 100.334 215.418 100.325 215.379 100.308C215.341 100.291 215.306 100.266 215.277 100.235C215.25 100.205 215.23 100.171 215.217 100.133C215.203 100.095 215.198 100.055 215.2 100.016C215.202 99.9757 215.212 99.9367 215.229 99.9007C215.246 99.8647 215.271 99.8325 215.3 99.8059L215.71 99.4357C215.77 99.3813 215.849 99.3529 215.93 99.3568C216.01 99.3606 216.086 99.3964 216.14 99.4562C216.195 99.5159 216.223 99.5949 216.219 99.6756C216.216 99.7563 216.18 99.8321 216.12 99.8865L215.71 100.257C215.653 100.308 215.579 100.336 215.503 100.335Z" fill="#090525"/>
<path d="M95.6181 59.3857L82.2861 90.256L94.073 86.3652L100.576 96.9609L108.576 63.9855L95.6181 59.3857Z" fill="white"/>
<path d="M100.576 97.2674C100.525 97.2671 100.474 97.2536 100.429 97.2283C100.383 97.203 100.345 97.1666 100.318 97.1226L93.9397 86.7305L82.3809 90.5461C82.3253 90.5645 82.2655 90.5664 82.2088 90.5515C82.152 90.5367 82.1009 90.5057 82.0614 90.4623C82.0219 90.4189 81.9959 90.3651 81.9864 90.3072C81.9769 90.2493 81.9844 90.19 82.008 90.1363L95.3386 59.2619C95.3694 59.1913 95.4259 59.1349 95.4966 59.1043C95.5674 59.0736 95.6471 59.0709 95.7197 59.0967L108.677 63.695C108.748 63.7202 108.807 63.7708 108.843 63.8369C108.878 63.903 108.888 63.98 108.87 64.0529L100.871 97.0297C100.857 97.088 100.827 97.1408 100.782 97.1814C100.738 97.222 100.683 97.2487 100.624 97.2579C100.608 97.2624 100.592 97.2656 100.576 97.2674ZM94.0736 86.0652C94.1254 86.0654 94.1763 86.0788 94.2214 86.1042C94.2666 86.1295 94.3046 86.1659 94.3318 86.21L100.453 96.1827L108.216 64.1814L95.7839 59.7688L82.829 89.7538L93.9738 86.0748C94.0064 86.0665 94.04 86.0632 94.0736 86.0652Z" fill="#27A59A"/>
<path d="M107.359 65.1298L116.481 97.4959L123.174 87.0383L134.9 91.1544L120.313 60.5205L107.359 65.1298Z" fill="white"/>
<path d="M116.481 97.7988C116.466 97.8001 116.451 97.8001 116.436 97.7988C116.378 97.7904 116.324 97.7654 116.28 97.7268C116.236 97.6882 116.204 97.6378 116.189 97.5815L107.067 65.2154C107.046 65.1413 107.054 65.0621 107.089 64.9937C107.125 64.9253 107.184 64.8727 107.257 64.8466L120.212 60.2373C120.283 60.2121 120.36 60.2141 120.43 60.2428C120.499 60.2716 120.555 60.3251 120.587 60.393L135.175 91.0283C135.201 91.0823 135.21 91.1429 135.201 91.2022C135.193 91.2615 135.167 91.3169 135.127 91.3615C135.087 91.4061 135.034 91.4378 134.976 91.4526C134.918 91.4675 134.857 91.4648 134.801 91.4449L123.299 87.408L116.742 97.6621C116.714 97.7053 116.675 97.7405 116.629 97.7644C116.583 97.7883 116.532 97.8002 116.481 97.7988ZM107.728 65.3206L116.589 96.7619L122.917 86.8739C122.954 86.8163 123.009 86.7729 123.074 86.7506C123.138 86.7283 123.209 86.7284 123.273 86.7509L134.313 90.6266L120.157 60.8971L107.728 65.3206Z" fill="#27A59A"/>
<path d="M133.866 51.4917L130.226 55.9084L131.905 61.3811L126.848 64.0628L126.301 69.7608L120.605 70.3087L117.926 75.3674L112.456 73.6871L108.04 77.3292L103.625 73.6871L98.1538 75.3674L95.4748 70.3073L89.7781 69.7608L89.2316 64.0614L84.1743 61.3824L85.8546 55.9084L82.2139 51.4917L85.8546 47.0737L84.1743 41.601L89.2316 38.9207L89.7794 33.2212L95.4748 32.6748L98.1538 27.6147L103.625 29.295L108.04 25.6543L112.456 29.295L117.926 27.6147L120.606 32.6748L126.301 33.2212L126.849 38.9207L131.905 41.601L130.226 47.0737L133.866 51.4917Z" fill="#27A59A"/>
<path d="M107.884 69.9427C117.983 69.9427 126.17 61.7517 126.17 51.6476C126.17 41.5435 117.983 33.3525 107.884 33.3525C97.784 33.3525 89.5967 41.5435 89.5967 51.6476C89.5967 61.7517 97.784 69.9427 107.884 69.9427Z" fill="white"/>
<path d="M107.883 70.2469C97.6372 70.2469 89.293 61.9027 89.293 51.6486C89.293 41.3945 97.6263 33.0488 107.883 33.0488C118.14 33.0488 126.473 41.3931 126.473 51.6486C126.473 61.904 118.134 70.2469 107.883 70.2469ZM107.883 33.6568C97.9665 33.6568 89.8995 41.7278 89.8995 51.6486C89.8995 61.5693 97.9596 69.639 107.883 69.639C117.807 69.639 125.861 61.568 125.861 51.6486C125.861 41.7292 117.801 33.6568 107.883 33.6568Z" fill="#C6E2DF"/>
<path d="M106.984 60.9035C106.862 60.9042 106.741 60.8804 106.629 60.8334C106.516 60.7865 106.414 60.7174 106.329 60.6303L99.3054 53.3325C99.2203 53.2467 99.1531 53.1448 99.1077 53.0329C99.0624 52.9209 99.0397 52.801 99.0411 52.6802C99.0425 52.5594 99.0679 52.44 99.1158 52.3291C99.1638 52.2182 99.2333 52.1179 99.3203 52.0342C99.4074 51.9504 99.5102 51.8847 99.6229 51.8411C99.7355 51.7974 99.8557 51.7766 99.9765 51.7798C100.097 51.783 100.216 51.8102 100.326 51.8598C100.437 51.9094 100.536 51.9805 100.618 52.0688L106.872 58.5565L115.852 45.4923C115.92 45.3936 116.006 45.3093 116.106 45.244C116.207 45.1788 116.319 45.1339 116.437 45.112C116.554 45.0902 116.675 45.0917 116.792 45.1165C116.909 45.1413 117.02 45.1889 117.119 45.2566C117.218 45.3244 117.302 45.4109 117.367 45.5112C117.432 45.6115 117.477 45.7237 117.499 45.8414C117.521 45.959 117.52 46.0798 117.495 46.1969C117.47 46.314 117.422 46.425 117.355 46.5237L107.737 60.5128C107.66 60.6249 107.558 60.7182 107.44 60.786C107.322 60.8539 107.19 60.8945 107.054 60.9049L106.984 60.9035Z" fill="#27A59A"/>
<path d="M180.211 49.3072L176.875 49.8222L174.714 47.4779C174.249 46.9752 173.355 47.2416 173.2 47.9301L172.479 51.1323L169.374 52.538C168.706 52.8399 168.639 53.7307 169.26 54.0408L172.152 55.5052L172.393 58.717C172.445 59.4001 173.299 59.691 173.837 59.1979L176.345 56.9001L179.599 57.4793C180.3 57.605 180.893 56.8891 180.605 56.2689L179.263 53.385L181.039 50.5312C181.126 50.3991 181.171 50.2443 181.17 50.0863C181.169 49.9284 181.121 49.7742 181.033 49.6433C180.944 49.5124 180.819 49.4107 180.673 49.3509C180.527 49.2911 180.366 49.2758 180.211 49.3072Z" fill="#27A59A"/>
<path d="M193.306 42.1609L190.027 42.8112L187.82 40.5243C187.344 40.0325 186.468 40.3372 186.337 41.0394L185.725 44.3044L182.702 45.844C182.052 46.176 182.019 47.0735 182.638 47.3727L185.54 48.7388L185.878 51.9779C185.952 52.6732 186.805 52.9342 187.321 52.4068L189.727 49.9874L192.96 50.4492C193.654 50.5475 194.22 49.8016 193.917 49.1855L192.501 46.3167L194.16 43.3631C194.242 43.2292 194.282 43.0741 194.277 42.9172C194.272 42.7603 194.22 42.6084 194.129 42.4803C194.039 42.3523 193.912 42.2538 193.766 42.197C193.619 42.1402 193.459 42.1277 193.306 42.1609Z" fill="#27A59A"/>
<path d="M207.525 36.2021L204.278 36.6966L202.213 34.2622C201.769 33.739 200.896 34.0067 200.737 34.7144L199.992 38.0054L196.958 39.4248C196.305 39.7294 196.228 40.6461 196.821 40.9767L199.608 42.5095L199.798 45.8196C199.839 46.5313 200.664 46.8319 201.194 46.3278L203.653 43.9835L206.805 44.6106C207.488 44.7472 208.07 44.0136 207.798 43.3729L206.536 40.3906L208.294 37.4685C208.685 36.8401 208.223 36.0873 207.525 36.2021Z" fill="#27A59A"/>
<path d="M221.24 30.373L218.017 31.011L215.852 28.6667C215.386 28.1626 214.525 28.4659 214.396 29.1804L213.79 32.5001L210.818 34.0452C210.18 34.3771 210.135 35.2965 210.754 35.6012L213.602 37.0219L213.931 40.3211C214.001 41.0301 214.838 41.2952 215.346 40.7706L217.713 38.3239L220.887 38.8184C221.571 38.9249 222.127 38.1695 221.827 37.5397L220.441 34.6135L222.08 31.6189C222.426 30.9687 221.933 30.2364 221.24 30.373Z" fill="#27A59A"/>
</svg>
