<svg width="28" height="26" viewBox="0 0 28 26" fill="none" xmlns="http://www.w3.org/2000/svg">
<path d="M4.77469 16.2521C6.54502 16.2521 7.98016 14.817 7.98016 13.0467C7.98016 11.2763 6.54502 9.84119 4.77469 9.84119C3.00435 9.84119 1.56921 11.2763 1.56921 13.0467C1.56921 14.817 3.00435 16.2521 4.77469 16.2521Z" fill="white"/>
<path d="M22.5858 16.2521C24.3562 16.2521 25.7913 14.817 25.7913 13.0467C25.7913 11.2763 24.3562 9.84119 22.5858 9.84119C20.8155 9.84119 19.3804 11.2763 19.3804 13.0467C19.3804 14.817 20.8155 16.2521 22.5858 16.2521Z" fill="white"/>
<path d="M20.5148 16.7513C21.3161 18.0021 21.7811 19.4879 21.7811 21.0804V24.2993H26.6631C27.1075 24.2993 27.4678 23.939 27.4678 23.4946V21.0804C27.4678 17.4859 23.6712 15.1766 20.5148 16.7513V16.7513Z" fill="white"/>
<path d="M0 21.142V23.4946C0 23.939 0.3603 24.2993 0.804721 24.2993H5.6867V21.0804C5.6867 19.486 6.15274 17.9985 6.95579 16.7469C3.74678 15.1651 0 17.5366 0 21.142Z" fill="white"/>
<path d="M13.7339 14.6426C10.1784 14.6426 7.29614 17.5249 7.29614 21.0803V24.2992C7.29614 24.7437 7.65644 25.104 8.10086 25.104H19.367C19.8114 25.104 20.1717 24.7437 20.1717 24.2992V21.0803C20.1717 17.5249 17.2894 14.6426 13.7339 14.6426Z" fill="white"/>
<path d="M12.387 4.69663C12.7012 5.0109 13.2108 5.01095 13.525 4.69663L16.7439 1.47774C17.0582 1.16347 17.0582 0.653977 16.7439 0.339707C16.4297 0.0254363 15.9202 0.0254363 15.6059 0.339707L12.956 2.98955L11.8619 1.8955C11.5477 1.58123 11.0381 1.58123 10.7239 1.8955C10.4096 2.20977 10.4096 2.71927 10.7239 3.03354L12.387 4.69663Z" fill="white"/>
<path d="M13.7339 14.6427C15.9561 14.6427 17.7575 12.8412 17.7575 10.6191C17.7575 8.39689 15.9561 6.59546 13.7339 6.59546C11.5118 6.59546 9.71033 8.39689 9.71033 10.6191C9.71033 12.8412 11.5118 14.6427 13.7339 14.6427Z" fill="white"/>
</svg>
