<svg width="19" height="16" viewBox="0 0 19 16" fill="none" xmlns="http://www.w3.org/2000/svg">
<path d="M10.7028 1.45121C5.71256 -1.38109 -0.536476 2.57513 0.677366 7.22819C0.992066 8.62187 1.95864 9.76827 3.12753 10.555C2.90274 11.1844 2.70044 11.8363 2.49813 12.4657C3.21744 12.0836 3.95924 11.6789 4.67855 11.2968C5.55521 11.589 6.47683 11.7239 7.42093 11.6789C6.27453 8.3746 9.21922 4.86795 13.5801 5.18265C13.2429 3.58667 12.119 2.23796 10.7028 1.45121ZM4.79094 5.09273C4.27394 5.09273 3.84684 4.66564 3.84684 4.14863C3.84684 3.63163 4.27394 3.20453 4.79094 3.20453C5.30795 3.20453 5.73504 3.63163 5.73504 4.14863C5.73504 4.66564 5.30795 5.09273 4.79094 5.09273ZM9.30913 5.09273C8.79212 5.09273 8.36503 4.66564 8.36503 4.14863C8.36503 3.63163 8.79212 3.20453 9.30913 3.20453C9.82614 3.20453 10.2532 3.63163 10.2532 4.14863C10.2532 4.66564 9.82614 5.09273 9.30913 5.09273Z" fill="#27A59A"/>
<path d="M15.8503 6.19349C11.0624 3.7658 5.62258 8.21656 8.1177 12.3301C9.26411 14.2633 11.9391 15.4771 15.0861 14.5555C15.7155 14.8028 16.2774 15.2074 16.8843 15.4996C16.727 14.9601 16.5472 14.4431 16.3673 13.9261C19.6267 11.5883 18.9074 7.76699 15.8503 6.19349ZM11.1973 9.4304C10.7926 9.4304 10.4555 9.09322 10.4555 8.68861C10.4555 8.28399 10.7926 7.94681 11.1973 7.94681C11.6019 7.94681 11.9391 8.28399 11.9391 8.68861C11.9391 9.09322 11.6019 9.4304 11.1973 9.4304ZM14.7938 9.4304C14.3892 9.4304 14.052 9.09322 14.052 8.68861C14.052 8.28399 14.3892 7.94681 14.7938 7.94681C15.1984 7.94681 15.5356 8.28399 15.5356 8.68861C15.5356 9.09322 15.1984 9.4304 14.7938 9.4304Z" fill="#27A59A"/>
</svg>
