<svg width="21" height="18" viewBox="0 0 21 18" fill="none" xmlns="http://www.w3.org/2000/svg">
<path d="M3.09678 6.83508C2.73594 6.7918 2.37022 6.85157 2.04193 7.00747C1.71364 7.16337 1.43619 7.40903 1.2417 7.71603C1.0472 8.02303 0.943594 8.37883 0.94287 8.74226C0.942147 9.10568 1.04433 9.46189 1.23761 9.76966L5.3603 16.3099C5.50694 16.546 5.70779 16.7436 5.94617 16.8865C6.18455 17.0294 6.45358 17.1133 6.73091 17.1313C7.32379 17.172 7.89424 16.9222 8.29688 16.4458L20.3702 1.4496C20.3722 1.44711 20.3742 1.44463 20.3763 1.4422C20.4887 1.30859 20.4934 1.01704 20.3204 0.812278C20.2728 0.756046 20.2143 0.71014 20.1483 0.677387C20.0824 0.644634 20.0105 0.625728 19.9369 0.621834C19.8634 0.617939 19.7899 0.629138 19.7208 0.65474C19.6518 0.680343 19.5887 0.719808 19.5355 0.770704C19.5313 0.774707 19.5271 0.778631 19.5227 0.782475L7.94659 11.0201C7.90254 11.0591 7.85119 11.0889 7.79552 11.1079C7.73985 11.1268 7.68097 11.1345 7.6223 11.1305C7.56363 11.1265 7.50635 11.1109 7.45376 11.0845C7.40118 11.0582 7.35436 11.0217 7.31601 10.9771L4.31914 7.49263C4.00818 7.12839 3.57209 6.89381 3.09678 6.83508Z" fill="#27A59A"/>
</svg>
