<svg width="260" height="267" viewBox="0 0 260 267" fill="none" xmlns="http://www.w3.org/2000/svg">
<path d="M263.98 265.672C409.038 265.672 526.633 147.915 526.633 2.65678C526.633 -142.602 409.038 -260.358 263.98 -260.358C118.92 -260.358 1.32654 -142.602 1.32654 2.65678C1.32654 147.915 118.92 265.672 263.98 265.672Z" stroke="#27A59A" stroke-width="1.2" stroke-miterlimit="10"/>
<path d="M261.504 117.842C326.399 117.842 379.007 65.1619 379.007 0.1775C379.007 -64.8069 326.399 -117.487 261.504 -117.487C196.61 -117.487 144.002 -64.8069 144.002 0.1775C144.002 65.1619 196.61 117.842 261.504 117.842Z" stroke="#27A59A" stroke-width="1.2" stroke-miterlimit="10"/>
<path d="M449.296 188.228L78.663 -182.915" stroke="#27A59A" stroke-width="1.2" stroke-miterlimit="10"/>
<path d="M79.1494 191.33L452.393 -182.427" stroke="#27A59A" stroke-width="1.2" stroke-miterlimit="10"/>
<path d="M224.121 12.7352C231.472 32.9303 253.823 43.3343 274.045 35.9741C294.267 28.6139 304.702 6.2765 297.352 -13.9185C290.002 -34.1124 267.65 -44.5164 247.428 -37.1562C227.206 -29.7959 216.771 -7.45859 224.121 12.7352Z" fill="#27A59A"/>
</svg>
