<svg width="26" height="27" viewBox="0 0 26 27" fill="none" xmlns="http://www.w3.org/2000/svg">
<path d="M4.90107 13.6342C3.32374 13.6342 2.04041 14.917 2.04041 16.4939C2.04041 18.0706 3.32374 19.3535 4.90107 19.3535C6.4784 19.3535 7.76173 18.0707 7.76173 16.4939C7.76173 14.917 6.4784 13.6342 4.90107 13.6342Z" fill="white"/>
<path d="M1.46739 20.0488C0.535721 20.9616 0 22.2118 0 23.5417V25.7437C0 25.9428 0.162 26.1047 0.36111 26.1047H9.44109C9.64731 26.1047 9.82159 25.9394 9.82159 25.7438V23.5418C9.82159 22.2076 9.28187 20.9543 8.34348 20.0408C7.43349 20.9288 6.21082 21.4356 4.9011 21.4356C3.59605 21.4356 2.37666 20.9318 1.46739 20.0488V20.0488Z" fill="white"/>
<path d="M21.1306 13.6544C19.5532 13.6544 18.2699 14.9373 18.2699 16.5141C18.2699 18.0909 19.5532 19.3738 21.1306 19.3738C22.7079 19.3738 23.9912 18.091 23.9912 16.5141C23.9912 14.9373 22.7079 13.6544 21.1306 13.6544V13.6544Z" fill="white"/>
<path d="M17.7884 20.1951C16.8774 21.082 16.3534 22.2988 16.3534 23.5941V25.7352C16.3534 25.9252 16.5226 26.0857 16.7228 26.0857H25.5383C25.7316 26.0857 25.8889 25.9284 25.8889 25.7352V23.5941C25.8889 22.303 25.3688 21.0892 24.4642 20.203C23.5814 21.0602 22.3976 21.5493 21.1306 21.5493C19.859 21.5493 18.6719 21.0572 17.7884 20.1951Z" fill="white"/>
<path d="M5.08063 3.26868C4.91774 3.26868 4.76941 3.41634 4.76941 3.57845V10.8268L6.13596 9.79655C6.52846 9.49989 7.01885 9.33605 7.51579 9.33605H14.3307C14.5071 9.33605 14.5993 9.19122 14.5993 9.04817V7.48945H11.6596C10.4067 7.48945 9.38751 6.47484 9.38751 5.22767V3.26868H5.08063Z" fill="white"/>
<path d="M20.9461 0.104004H11.6595C11.4952 0.104004 11.3666 0.233726 11.3666 0.399337V5.22861C11.3666 5.39005 11.4925 5.51188 11.6595 5.51188H18.5013C18.9952 5.51188 19.4866 5.67777 19.8852 5.97899L21.2625 7.01955V0.399337C21.2624 0.242004 21.1146 0.104004 20.9461 0.104004V0.104004ZM19.2173 3.86316H13.4117V1.88467H19.2173V3.86316Z" fill="white"/>
</svg>
