<svg width="156" height="161" viewBox="0 0 156 161" fill="none" xmlns="http://www.w3.org/2000/svg">
<path d="M141.491 98.4524C137.974 117.384 129.439 127.761 117.204 133.444C104.913 139.152 88.8324 140.152 70.1584 140.152C51.6454 140.152 37.5283 132.456 28.0289 120.652C18.5201 108.836 13.6211 92.88 13.6211 76.3617C13.6215 57.8358 18.5237 43.9803 27.9887 34.7524C37.456 25.5223 51.5692 20.8427 70.1584 20.8427C88.7125 20.8427 108.874 27.8133 123.227 41.0006C137.561 54.1713 146.116 73.5509 141.491 98.4524Z" stroke="#27A59A"/>
<path d="M40.3964 134.588C30.9412 133.385 24.4807 129.945 20.2578 124.967C16.0288 119.981 13.9938 113.394 13.5096 105.806C12.5399 90.6103 17.7997 71.594 23.7841 53.9772C29.7172 36.5111 41.5596 25.6581 55.8296 20.4782C70.1141 15.2932 86.8586 15.7849 102.568 21.0797C120.186 27.0184 131.791 36.0855 137.533 47.9743C143.276 59.8651 143.202 74.6804 137.245 92.2192C131.308 109.697 119.763 121.88 103.392 128.904C87.002 135.937 65.7457 137.811 40.3964 134.588Z" stroke="#27A59A"/>
</svg>
