<svg width="24" height="30" viewBox="0 0 24 30" fill="none" xmlns="http://www.w3.org/2000/svg">
<path d="M15.4921 5.17456V0H3.30167C1.72215 0 0.41272 1.30165 0.41272 2.88094V27.1191C0.41272 28.6986 1.72215 30 3.30167 30H20.6985C22.2778 30 23.5872 28.6983 23.5872 27.1191V8.49197H18.8173C16.9762 8.49197 15.4921 7.0079 15.4921 5.17456ZM6.88893 14.8492L11.5398 9.85725C11.6588 9.73022 11.8255 9.65881 12.0079 9.65881C12.1905 9.65881 12.3491 9.73022 12.4762 9.85725L17.127 14.8492C17.3651 15.1032 17.3493 15.5079 17.0952 15.7462C16.9762 15.8572 16.8174 15.9128 16.6668 15.9128C16.4999 15.9128 16.3255 15.8414 16.1985 15.7143L12.635 11.9048V20.9761C12.635 21.3254 12.3494 21.611 12.0001 21.611C11.6508 21.611 11.3652 21.3254 11.3652 20.9761V11.9048L7.81751 15.7143C7.57947 15.9682 7.17458 15.9842 6.92075 15.7462C6.66669 15.5079 6.65089 15.1112 6.88893 14.8492ZM19.1666 25.1587C19.1666 25.508 18.881 25.7936 18.5317 25.7936H5.46826C5.11899 25.7936 4.83334 25.508 4.83334 25.1587C4.83334 24.8094 5.11899 24.5238 5.46826 24.5238H18.5397C18.889 24.5238 19.1666 24.8096 19.1666 25.1587Z" fill="#3A3A3A"/>
<path d="M18.8176 7.22252H22.7143L16.762 0.976562V5.17494C16.762 6.30997 17.6745 7.22252 18.8176 7.22252Z" fill="#3A3A3A"/>
</svg>
