<svg width="70" height="70" viewBox="0 0 70 70" fill="none" xmlns="http://www.w3.org/2000/svg">
<path d="M66 35C66 52.1208 52.1208 66 35 66C17.8792 66 4 52.1208 4 35C4 17.8792 17.8792 4 35 4C52.1208 4 66 17.8792 66 35Z" fill="white"/>
<path d="M35.0049 0C25.721 0 16.8174 3.68747 10.2527 10.2512C3.68799 16.815 0 25.7174 0 35C0 44.2826 3.68799 53.185 10.2527 59.7487C16.8174 66.3125 25.721 70 35.0049 70C44.2871 69.9974 53.1883 66.3087 59.7508 59.7452C66.3134 53.1817 70 44.2809 70 35C70.0013 30.4042 69.0971 25.8532 67.339 21.6068C65.5809 17.3605 63.0034 13.502 59.7537 10.2519C56.504 7.00167 52.6457 4.42343 48.3993 2.66439C44.1528 0.905353 39.6014 -1.84409e-07 35.0049 0ZM25.3391 47.4894C25.2598 51.6723 23.4754 53.625 20.0155 54.527C16.1393 55.5183 15.713 55.2308 14.1665 49.9575C19.9362 49.5908 19.7082 45.4375 19.6487 41.2645C19.5694 34.8711 19.6488 28.4579 19.5695 22.0547C19.512 21.7966 19.422 21.5468 19.3018 21.3112L16.6251 20.8652C15.7131 15.1855 15.713 15.1855 21.2349 15.1855H25.0021C25.2499 15.7406 25.468 16.0082 25.468 16.2758C25.4581 26.6836 25.5374 37.0815 25.3391 47.4894ZM45.7613 48.768C43.4914 45.2836 40.9943 41.9525 38.2864 38.7964V52.6735H31.9416V15.2549H38.0286V26.7035L38.7225 27.0008C40.4177 24.5327 42.4104 22.2132 43.7388 19.5568C45.8306 15.3639 48.9038 14.0753 53.7714 15.5919L42.1031 32.7103L55.8334 52.4752C49.8456 53.8035 48.9832 53.4763 45.7613 48.768Z" fill="#27A59A"/>
</svg>
