<svg width="265" height="71" viewBox="0 0 265 71" fill="none" xmlns="http://www.w3.org/2000/svg">
<g clip-path="url(#clip0_2043_36388)">
<path d="M84.1799 13.8899H110.77V18.5499H89.85V31.3299H110.85V36.2699H89.85C89.7 39.5499 89.5599 42.5599 89.4199 45.7699H84.1899L84.1799 13.8899Z" fill="white"/>
<path d="M228.75 14.27C233.06 13 235.4 14.33 237.33 17.56C240.11 22.21 243.33 26.56 246.64 31.44C249.97 26.51 253.22 22.14 255.96 17.44C257.9 14.13 260.25 12.92 264.4 14.26L258.4 23.1L251.51 33.27C248.57 37.59 244.51 37.57 241.6 33.22C237.39 27.04 233.17 20.8 228.75 14.27Z" fill="white"/>
<path d="M223.22 56.2599C218.49 57.9299 216.72 55.8799 215.53 51.8499C213.68 45.5799 213.42 45.6599 206.99 45.6599C206.245 45.72 205.496 45.72 204.75 45.6599C197.22 44.3999 191.75 46.0599 190.63 54.7999C190.31 57.1899 189.57 57.1599 184.08 56.3099C185.88 51.6399 187.58 47.0099 189.51 42.4799C189.791 42.0639 190.163 41.7178 190.598 41.4681C191.033 41.2185 191.52 41.072 192.02 41.0399C199.74 40.9299 207.47 40.8999 215.19 41.0399C215.79 41.1327 216.362 41.361 216.861 41.7075C217.36 42.0541 217.773 42.5097 218.07 43.0399C219.94 47.3699 221.51 51.7999 223.22 56.2599Z" fill="white"/>
<path d="M133.78 32.9299C141.02 34.4099 144.87 38.2999 145.01 44.0899C145.17 50.5199 141.95 55.0899 135.52 55.8099C129.29 56.4699 122.94 55.9499 116.52 55.9499V50.1899C119.97 50.4299 123.15 50.8499 126.33 50.8099C129.183 50.878 132.031 50.5413 134.79 49.8099C139.54 48.3499 140.26 42.9999 136.38 39.8099C133.38 37.3899 133.38 37.3899 133.78 32.9299Z" fill="white"/>
<path d="M150.18 56.4901C150.43 53.7001 150.58 52.0301 150.75 50.1801C154.22 50.4301 157.43 50.8501 160.63 50.8301C163.34 50.8301 166.26 50.8301 168.69 49.8301C169.653 49.3893 170.509 48.7456 171.199 47.9429C171.889 47.1403 172.398 46.1978 172.69 45.1801C172.737 44.1748 172.539 43.1732 172.112 42.2618C171.685 41.3505 171.043 40.557 170.24 39.9501C167.14 38.2001 167.58 35.9501 167.8 33.3301C173.44 33.4601 178.31 37.5801 179.08 42.7301C179.96 48.7301 177.08 54.4001 171.26 55.3401C164.49 56.4101 157.52 56.1401 150.18 56.4901Z" fill="white"/>
<path d="M161.56 36.5499C157.22 35.1999 153.03 34.1699 151.01 29.8799C150.263 28.2976 149.91 26.558 149.981 24.8096C150.053 23.0612 150.546 21.3561 151.42 19.8399C152.293 18.3238 153.521 17.0416 154.998 16.103C156.474 15.1644 158.156 14.5972 159.9 14.4499C165.63 13.7799 171.5 14.3199 177.48 14.3199V19.9499C175.56 19.9499 173.76 19.8899 171.96 19.9499C168.26 20.0999 164.49 19.9499 160.88 20.6599C159.32 20.9599 157.19 22.9299 156.98 24.3799C156.74 26.0699 157.84 28.9399 159.22 29.6699C162.36 31.3399 162.01 33.5499 161.56 36.5499Z" fill="white"/>
<path d="M143.75 14.3401C143.54 16.8401 143.41 18.4001 143.27 19.9701C138.72 19.9701 134.39 19.8201 130.08 20.0301C127.08 20.1701 123.81 20.4501 122.87 24.0301C122.02 27.2701 123.99 29.0901 126.61 30.8901C127.72 31.6601 127.54 34.2901 128.1 36.7201C122.49 34.9401 117.55 33.7201 116.33 27.8501C114.93 21.1501 118.81 15.2201 125.8 14.4501C131.54 13.8401 137.39 14.3401 143.75 14.3401Z" fill="white"/>
<path d="M192.03 35.65C194.65 28.78 197.03 22.14 199.79 15.65C200.2 14.65 202.29 13.9501 203.61 13.9401C204.93 13.9301 207.07 14.61 207.48 15.57C210.25 22.05 212.65 28.68 215.24 35.46C211.53 36.58 209.24 36.03 208.24 32.03C207.24 28.03 205.46 24.39 203.68 19.64C201.97 24.24 200.6 27.96 199.22 31.64C197.55 36.1 197.55 36.1 192.03 35.65Z" fill="white"/>
<path d="M111.11 56.5499H84.1101V52.1299H110.85C110.95 53.3899 111.02 54.7999 111.11 56.5499Z" fill="white"/>
<path d="M249.22 56.5501H243.85V42.3501H249.22V56.5501Z" fill="white"/>
<path d="M35.3099 0C25.9451 0 16.964 3.72013 10.342 10.342C3.72013 16.964 0 25.9452 0 35.31C0 44.6748 3.72013 53.656 10.342 60.2779C16.964 66.8998 25.9451 70.62 35.3099 70.62C44.673 70.6173 53.6517 66.896 60.2715 60.2744C66.8912 53.6528 70.61 44.6731 70.61 35.31C70.6113 30.6735 69.6992 26.0821 67.9258 21.7982C66.1524 17.5142 63.5525 13.6216 60.2744 10.3427C56.9964 7.06368 53.1045 4.4626 48.821 2.68799C44.5376 0.913372 39.9464 -1.86042e-07 35.3099 0ZM25.5599 47.91C25.4799 52.13 23.6799 54.1 20.1899 55.01C16.2799 56.01 15.8499 55.72 14.2899 50.4C20.1099 50.03 19.8799 45.84 19.8199 41.63C19.7399 35.18 19.82 28.71 19.74 22.25C19.682 21.9896 19.5913 21.7376 19.47 21.5L16.77 21.05C15.85 15.32 15.8499 15.32 21.4199 15.32H25.22C25.47 15.88 25.6899 16.15 25.6899 16.42C25.6799 26.92 25.7599 37.41 25.5599 47.91ZM46.16 49.2C43.8703 45.6847 41.3515 42.3241 38.62 39.14V53.14H32.22V15.39H38.36V26.94L39.0599 27.24C40.7699 24.75 42.78 22.41 44.12 19.73C46.23 15.5 49.33 14.2 54.24 15.73L42.47 33L56.3199 52.94C50.2799 54.28 49.41 53.95 46.16 49.2Z" fill="white"/>
</g>
<defs>
<clipPath id="clip0_2043_36388">
<rect width="264.4" height="70.62" fill="white"/>
</clipPath>
</defs>
</svg>
