<svg height="71" viewBox="0 0 252 71" fill="none" xmlns="http://www.w3.org/2000/svg">
<g clip-path="url(#clip0_2043_36501)">
<path d="M80.5671 13.8701H105.826V17.9768H85.9532V29.2393H105.902V33.5927H85.9532C85.8107 36.4832 85.6777 39.1358 85.5447 41.9646H80.5766L80.5671 13.8701Z" fill="#27A59A"/>
<path d="M217.896 14.2051C221.99 13.0859 224.213 14.258 226.047 17.1044C228.687 21.2023 231.746 25.0357 234.89 29.3363C238.054 24.9917 241.141 21.1406 243.743 16.9987C245.586 14.0817 247.819 13.0154 251.761 14.1962L246.061 21.9866L239.516 30.949C236.724 34.756 232.867 34.7384 230.103 30.9049C226.104 25.4587 222.095 19.9597 217.896 14.2051Z" fill="#27A59A"/>
<path d="M212.643 51.209C208.15 52.6807 206.469 50.8742 205.339 47.3227C203.581 41.7972 203.334 41.8677 197.226 41.8677C196.518 41.9207 195.807 41.9207 195.098 41.8677C187.946 40.7573 182.75 42.2202 181.686 49.9224C181.382 52.0286 180.679 52.0022 175.464 51.2531C177.173 47.1376 178.788 43.0574 180.622 39.0653C180.888 38.6987 181.241 38.3937 181.655 38.1737C182.068 37.9537 182.53 37.8246 183.006 37.7963C190.339 37.6994 197.682 37.6729 205.016 37.7963C205.586 37.878 206.129 38.0793 206.603 38.3846C207.077 38.69 207.47 39.0916 207.751 39.5588C209.528 43.3747 211.019 47.2786 212.643 51.209Z" fill="#27A59A"/>
<path d="M127.683 30.6494C134.56 31.9537 138.217 35.3818 138.35 40.4843C138.502 46.1507 135.444 50.1781 129.336 50.8126C123.418 51.3942 117.386 50.936 111.287 50.936V45.8599C114.564 46.0714 117.585 46.4416 120.606 46.4063C123.316 46.4663 126.022 46.1696 128.642 45.525C133.154 44.2384 133.838 39.5237 130.152 36.7125C127.303 34.5798 127.303 34.5798 127.683 30.6494Z" fill="#27A59A"/>
<path d="M143.261 51.4121C143.499 48.9534 143.642 47.4817 143.803 45.8514C147.099 46.0717 150.148 46.4418 153.188 46.4242C155.762 46.4242 158.536 46.4242 160.844 45.5429C161.759 45.1546 162.572 44.5872 163.228 43.8799C163.884 43.1726 164.367 42.342 164.644 41.4451C164.689 40.5592 164.501 39.6765 164.095 38.8734C163.69 38.0703 163.079 37.371 162.317 36.8361C159.372 35.2939 159.79 33.3111 159.999 31.0022C165.357 31.1168 169.983 34.7475 170.714 39.286C171.55 44.5736 168.814 49.5703 163.286 50.3987C156.855 51.3416 150.234 51.1037 143.261 51.4121Z" fill="#27A59A"/>
<path d="M154.072 33.8395C149.949 32.6498 145.969 31.7421 144.05 27.9615C143.34 26.5671 143.005 25.034 143.073 23.4932C143.141 21.9525 143.609 20.4498 144.439 19.1137C145.269 17.7775 146.435 16.6476 147.838 15.8204C149.241 14.9933 150.839 14.4934 152.495 14.3637C157.938 13.7732 163.514 14.2491 169.194 14.2491V19.2106C167.371 19.2106 165.661 19.1577 163.951 19.2106C160.436 19.3428 156.855 19.2106 153.426 19.8363C151.944 20.1007 149.921 21.8367 149.721 23.1146C149.493 24.6039 150.538 27.1331 151.849 27.7764C154.832 29.2481 154.499 31.1957 154.072 33.8395Z" fill="#27A59A"/>
<path d="M137.153 14.2669C136.954 16.4701 136.83 17.8448 136.697 19.2284C132.375 19.2284 128.262 19.0962 124.168 19.2813C121.318 19.4047 118.212 19.6514 117.319 22.8063C116.511 25.6616 118.383 27.2655 120.872 28.8517C121.926 29.5303 121.755 31.848 122.287 33.9895C116.958 32.4208 112.265 31.3457 111.106 26.1727C109.777 20.2683 113.462 15.0424 120.102 14.3638C125.555 13.8263 131.112 14.2669 137.153 14.2669Z" fill="#27A59A"/>
<path d="M183.016 33.0463C185.504 26.992 187.765 21.1405 190.387 15.4211C190.776 14.5398 192.762 13.923 194.016 13.9142C195.27 13.9053 197.302 14.5046 197.692 15.3506C200.323 21.0611 202.603 26.9039 205.063 32.8788C201.539 33.8658 199.364 33.3811 198.414 29.8561C197.464 26.3311 195.773 23.1233 194.082 18.9373C192.458 22.9911 191.156 26.2694 189.845 29.5124C188.259 33.4428 188.259 33.4428 183.016 33.0463Z" fill="#27A59A"/>
<path d="M106.148 51.4648H80.5V47.5696H105.901C105.996 48.68 106.062 49.9226 106.148 51.4648Z" fill="#27A59A"/>
<path d="M237.341 51.4648H232.24V38.9509H237.341V51.4648Z" fill="#27A59A"/>
<path d="M35.5049 0C26.221 0 17.3174 3.68747 10.7527 10.2512C4.18799 16.815 0.5 25.7174 0.5 35C0.5 44.2826 4.18799 53.185 10.7527 59.7487C17.3174 66.3125 26.221 70 35.5049 70C44.7871 69.9974 53.6883 66.3087 60.2508 59.7452C66.8134 53.1817 70.5 44.2809 70.5 35C70.5013 30.4042 69.5971 25.8532 67.839 21.6068C66.0809 17.3605 63.5034 13.502 60.2537 10.2519C57.004 7.00167 53.1457 4.42343 48.8993 2.66439C44.6528 0.905353 40.1014 -1.84409e-07 35.5049 0ZM25.8391 47.4894C25.7598 51.6723 23.9754 53.625 20.5155 54.527C16.6393 55.5183 16.213 55.2308 14.6665 49.9575C20.4362 49.5908 20.2082 45.4375 20.1487 41.2645C20.0694 34.8711 20.1488 28.4579 20.0695 22.0547C20.012 21.7966 19.922 21.5468 19.8018 21.3112L17.1251 20.8652C16.2131 15.1855 16.213 15.1855 21.7349 15.1855H25.5021C25.7499 15.7406 25.968 16.0082 25.968 16.2758C25.9581 26.6836 26.0374 37.0815 25.8391 47.4894ZM46.2613 48.768C43.9914 45.2836 41.4943 41.9525 38.7864 38.7964V52.6735H32.4416V15.2549H38.5286V26.7035L39.2225 27.0008C40.9177 24.5327 42.9104 22.2132 44.2388 19.5568C46.3306 15.3639 49.4038 14.0753 54.2714 15.5919L42.6031 32.7103L56.3334 52.4752C50.3456 53.8035 49.4832 53.4763 46.2613 48.768Z" fill="#27A59A"/>
</g>
<defs>
<clipPath id="clip0_2043_36501">
<rect width="285" height="70.62" fill="white" transform="translate(0.5)"/>
</clipPath>
</defs>
</svg>
