<svg width="34" height="32" viewBox="0 0 34 32" fill="none" xmlns="http://www.w3.org/2000/svg">
<path d="M29.0616 0H4.5109C2.29927 0 0.5 1.79927 0.5 4.0109V19.9821C0.5 22.1938 2.29927 23.993 4.5109 23.993H11.8232L16.3881 31.7721C16.471 31.9133 16.6225 32 16.7862 32C16.9499 32 17.1014 31.9133 17.1843 31.7721L21.7492 23.993H29.0615C31.2731 23.993 33.0724 22.1938 33.0724 19.9821V4.0109C33.0725 1.79927 31.2733 0 29.0616 0ZM32.1494 19.9821C32.1494 21.6847 30.7642 23.0699 29.0616 23.0699H21.4849C21.3212 23.0699 21.1698 23.1566 21.0869 23.2979L16.7863 30.6264L12.4856 23.2979C12.4028 23.1566 12.2513 23.0699 12.0876 23.0699H4.5109C2.8083 23.0699 1.42311 21.6847 1.42311 19.9821V4.0109C1.42311 2.3083 2.8083 0.923108 4.5109 0.923108H29.0616C30.7642 0.923108 32.1494 2.3083 32.1494 4.0109V19.9821ZM23.8733 9.67437C23.8596 9.67318 23.8442 9.67299 23.8324 9.67259C23.8324 9.67259 19.0783 9.67694 18.9476 9.67655C18.5704 9.67523 18.2691 9.67424 18.1817 9.65452C18.1807 9.65373 18.1798 9.65287 18.1789 9.65202C18.124 9.60263 18.1055 9.54368 18.1225 9.47181L19.0878 5.37895C19.3828 4.16487 18.635 2.9372 17.421 2.64233C16.2075 2.34746 14.9793 3.09512 14.6843 4.30927L13.7721 8.06414C13.7204 8.27692 13.3647 8.77296 13.0509 9.21071C12.7388 9.64602 12.4016 10.1168 12.1368 10.5873C11.9231 10.4266 11.6584 10.33 11.3712 10.33C11.3701 10.33 11.3691 10.33 11.368 10.33L9.29676 10.3351C8.9502 10.336 8.63786 10.4663 8.39343 10.7121C8.14914 10.958 8.02069 11.271 8.02181 11.6176L8.05096 20.0435C8.0534 20.7465 8.62638 21.3171 9.32887 21.3171H9.3321L11.4034 21.3121C11.75 21.3112 12.0624 21.1808 12.3066 20.9351C12.4583 20.7826 12.5651 20.6041 12.6242 20.4078C12.6564 20.4257 12.6753 20.455 12.686 20.4814C12.9145 21.0396 13.4759 21.4147 14.084 21.4147L21.6059 21.3951C21.6089 21.3951 21.6119 21.395 21.6148 21.3949C22.6058 21.3732 23.4162 20.5561 23.4212 19.5735C23.4232 19.1743 23.2929 18.8124 23.0323 18.4907C23.8201 18.1751 24.1905 17.5087 24.1937 16.8758C24.1959 16.4371 24.0423 16.0763 23.8292 15.7935C24.6234 15.4781 24.997 14.8113 25.0003 14.1783C25.0025 13.7271 24.8749 13.336 24.6376 13.0299C24.7575 12.9621 24.8691 12.8814 24.9707 12.7885C25.3369 12.4537 25.5483 11.9776 25.5508 11.4823C25.5562 10.4117 24.9605 9.76958 23.8733 9.67437ZM11.6519 20.2843C11.5793 20.3574 11.5043 20.3887 11.4012 20.389L9.32979 20.394C9.32946 20.394 9.3292 20.394 9.32887 20.394C9.13376 20.394 8.97466 20.2356 8.974 20.0403L8.94486 11.6144C8.94446 11.5113 8.97538 11.4361 9.04798 11.363C9.12071 11.2899 9.19574 11.2586 9.29893 11.2583L11.3702 11.2532H11.3711C11.5662 11.2532 11.7254 11.4117 11.726 11.6069L11.7552 20.0328C11.7556 20.1359 11.7247 20.2111 11.6519 20.2843ZM24.3478 12.1072C24.1327 12.3039 23.8288 12.392 23.468 12.3614C23.2252 12.3416 23.0085 12.5125 22.9727 12.7535C22.9369 12.9943 23.0944 13.2216 23.3325 13.2726C23.8361 13.3805 24.0796 13.6752 24.0771 14.1736C24.0744 14.7107 23.559 15.0566 22.7628 15.0566C22.7587 15.0566 22.7547 15.0565 22.7507 15.0566C22.5305 15.0566 22.3409 15.2122 22.298 15.4282C22.255 15.6449 22.3715 15.8617 22.5759 15.9453C22.8173 16.0441 23.2731 16.3647 23.2706 16.8711C23.2679 17.4082 22.7589 17.7542 21.9729 17.7542C21.9689 17.7542 21.965 17.7543 21.9611 17.7542C21.7513 17.7542 21.5677 17.8958 21.5146 18.099C21.4613 18.3027 21.5528 18.5167 21.7368 18.6191C22.258 18.909 22.4998 19.2108 22.4981 19.5688C22.4956 20.0465 22.0841 20.4592 21.5984 20.472L14.0827 20.4916C13.8464 20.4916 13.6284 20.347 13.5403 20.1319C13.3905 19.7659 13.0599 19.5179 12.6763 19.4752L12.6493 11.6767C12.8376 11.0932 13.348 10.3804 13.8009 9.74868C14.2333 9.14563 14.5749 8.66917 14.6689 8.28219L15.5811 4.52732C15.7559 3.80782 16.4836 3.3646 17.2029 3.53946C17.9223 3.71419 18.3654 4.44173 18.19 5.1642L17.224 9.26003C17.1296 9.66026 17.2557 10.0634 17.5615 10.3383C17.8478 10.596 18.0583 10.5967 18.9444 10.5997C19.0742 10.6001 23.8123 10.5958 23.8123 10.5958C24.4092 10.6527 24.6306 10.8933 24.6275 11.4775C24.6264 11.7162 24.5243 11.9457 24.3478 12.1072Z" fill="black"/>
</svg>
