<svg width="42" height="42" viewBox="0 0 42 42" fill="none" xmlns="http://www.w3.org/2000/svg">
<path fill-rule="evenodd" clip-rule="evenodd" d="M8.3176 28.9323C8.31759 30.7017 9.75194 32.1361 11.5213 32.1361L11.5214 31.5351L11.5214 32.1361L30.1274 32.1361C31.8968 32.1361 33.3311 30.7016 33.3311 28.9323L33.3312 12.4335L32.7302 12.4335L33.3312 12.4335C33.3312 10.6641 31.8967 9.22974 30.1273 9.22972L23.4867 9.22974C23.1548 9.22974 22.8857 9.49882 22.8857 9.83074C22.8857 10.1627 23.1548 10.4317 23.4867 10.4317L30.1273 10.4317C31.2329 10.4317 32.1292 11.328 32.1292 12.4335L32.1291 28.9323L32.7301 28.9323L32.1291 28.9323C32.1291 30.0378 31.2329 30.9341 30.1274 30.9341L30.1274 31.5351L30.1274 30.9341L11.5214 30.9341C10.4158 30.9341 9.51959 30.0379 9.5196 28.9323L9.5196 28.9323L9.51957 12.4335L8.91858 12.4335L9.51957 12.4335C9.51958 11.328 10.4158 10.4317 11.5214 10.4317C11.5214 10.4317 11.5214 10.4317 11.5214 10.4317L18.068 10.4318C18.3999 10.4318 18.669 10.1627 18.669 9.83076C18.669 9.49884 18.3999 9.22976 18.068 9.22976L11.5214 9.22971L11.5214 9.22971C9.75196 9.22976 8.31759 10.6641 8.31758 12.4335L8.31758 12.4335L8.3176 28.9323Z" fill="#090525"/>
<path fill-rule="evenodd" clip-rule="evenodd" d="M14.3698 19.5732C14.7018 19.5732 14.9708 19.3041 14.9708 18.9722L14.9709 15.0452L17.8341 19.1914C17.8884 19.2699 17.9835 19.3793 18.1348 19.4479C18.3067 19.5258 18.5242 19.5352 18.7215 19.4266C18.8964 19.3303 18.9839 19.1812 19.025 19.0783C19.0681 18.9703 19.0813 18.864 19.0813 18.7747L19.0813 13.1064C19.0813 12.7745 18.8122 12.5054 18.4803 12.5054C18.1483 12.5054 17.8793 12.7745 17.8793 13.1064L17.8793 17.1416L14.8644 12.7758C14.7149 12.5594 14.4421 12.4653 14.191 12.5436C13.9399 12.6218 13.7689 12.8543 13.7689 13.1173L13.7689 18.9722C13.7689 19.3041 14.0379 19.5731 14.3698 19.5732Z" fill="#090525"/>
<path fill-rule="evenodd" clip-rule="evenodd" d="M20.8122 16.0393C20.8121 17.991 22.3943 19.5732 24.346 19.5732C26.2978 19.5732 27.8799 17.991 27.8799 16.0393C27.8799 14.0875 26.2978 12.5054 24.346 12.5054L24.346 12.5054C22.3943 12.5054 20.8121 14.0875 20.8122 16.0393M24.346 18.3712C23.0581 18.3712 22.0141 17.3272 22.0142 16.0393L22.0142 16.0393C22.0141 14.7514 23.0581 13.7074 24.346 13.7074L24.346 13.1084L24.346 13.7074C25.634 13.7074 26.6779 14.7514 26.6779 16.0393C26.6779 17.3272 25.6339 18.3712 24.346 18.3712Z" fill="#090525"/>
<path fill-rule="evenodd" clip-rule="evenodd" d="M13.7102 28.8611C14.0422 28.8611 14.3112 28.592 14.3112 28.2601L14.3113 22.9953L16.0877 22.9953C16.4196 22.9953 16.6887 22.7262 16.6887 22.3943C16.6887 22.0624 16.4196 21.7933 16.0877 21.7933L13.7103 21.7933C13.3783 21.7933 13.1093 22.0624 13.1093 22.3943L13.1092 28.2601C13.1092 28.592 13.3783 28.8611 13.7102 28.8611Z" fill="#090525"/>
<path fill-rule="evenodd" clip-rule="evenodd" d="M13.1092 25.2712C13.1092 25.6031 13.3783 25.8722 13.7102 25.8722L15.8988 25.8722C16.2307 25.8722 16.4998 25.6031 16.4998 25.2712C16.4998 24.9393 16.2307 24.6702 15.8988 24.6702L13.7102 24.6702C13.3783 24.6702 13.1092 24.9393 13.1092 25.2712Z" fill="#090525"/>
<path fill-rule="evenodd" clip-rule="evenodd" d="M18.8424 28.26C18.8424 28.592 19.1115 28.861 19.4434 28.861L21.915 28.8611C22.247 28.8611 22.516 28.592 22.516 28.2601C22.5161 27.9282 22.247 27.6591 21.9151 27.6591L20.0444 27.6591L20.0444 22.9953L21.915 22.9953C22.2469 22.9953 22.516 22.7262 22.516 22.3943C22.516 22.0624 22.247 21.7933 21.915 21.7933L19.4435 21.7933C19.2841 21.7933 19.1312 21.8566 19.0185 21.9693C18.9058 22.082 18.8425 22.2349 18.8425 22.3943L18.8424 28.26Z" fill="#090525"/>
<path fill-rule="evenodd" clip-rule="evenodd" d="M18.8424 25.3269C18.8424 25.6588 19.1115 25.9279 19.4434 25.9279L21.7328 25.9279C22.0647 25.9279 22.3338 25.6588 22.3338 25.3269C22.3338 24.9949 22.0647 24.7259 21.7328 24.7259L19.4434 24.7259C19.1115 24.7259 18.8424 24.9949 18.8424 25.3269Z" fill="#090525"/>
<path fill-rule="evenodd" clip-rule="evenodd" d="M24.8659 28.2601C24.8659 28.592 25.135 28.8611 25.4669 28.8611L27.9385 28.8611C28.2704 28.8611 28.5395 28.592 28.5395 28.2601C28.5395 27.9282 28.2704 27.6591 27.9385 27.6591L26.0679 27.6591L26.0679 22.9953L27.9385 22.9953C28.2704 22.9953 28.5395 22.7262 28.5395 22.3943C28.5395 22.0624 28.2705 21.7933 27.9385 21.7933L25.4669 21.7933C25.3075 21.7933 25.1546 21.8566 25.0419 21.9693C24.9292 22.082 24.8659 22.2349 24.8659 22.3943L24.8659 28.2601Z" fill="#090525"/>
<path fill-rule="evenodd" clip-rule="evenodd" d="M24.8659 25.3269C24.8659 25.6588 25.135 25.9279 25.4669 25.9279L27.7563 25.9279C28.0882 25.9279 28.3573 25.6588 28.3573 25.3269C28.3573 24.9949 28.0882 24.7259 27.7563 24.7259L25.4669 24.7259C25.135 24.7259 24.8659 24.9949 24.8659 25.3269Z" fill="#090525"/>
</svg>
