<svg width="25" height="25" viewBox="0 0 25 25" fill="none" xmlns="http://www.w3.org/2000/svg">
<path fill-rule="evenodd" clip-rule="evenodd" d="M0 19.1406C0 22.3767 2.62331 25 5.85938 25H15.1367C15.6761 25 16.1133 24.5628 16.1133 24.0234C16.1133 23.4841 15.6761 23.0469 15.1367 23.0469H5.85938C3.70199 23.0469 1.95312 21.298 1.95312 19.1406V5.85938C1.95312 3.70199 3.70199 1.95312 5.85938 1.95312H19.1406C21.298 1.95312 23.0469 3.70199 23.0469 5.85938V15.21C23.0469 15.7493 23.4841 16.1865 24.0234 16.1865C24.5628 16.1865 25 15.7493 25 15.21V5.85938C25 2.62331 22.3767 -1.90735e-06 19.1406 -1.90735e-06H5.85938C2.62331 -1.90735e-06 0 2.62331 0 5.85938V19.1406Z" fill="#090525"/>
<path fill-rule="evenodd" clip-rule="evenodd" d="M9.22852 6.15234C9.22852 6.69168 9.66574 7.12891 10.2051 7.12891H19.1406C19.68 7.12891 20.1172 6.69168 20.1172 6.15234C20.1172 5.613 19.68 5.17578 19.1406 5.17578H10.2051C9.66574 5.17578 9.22852 5.613 9.22852 6.15234Z" fill="#090525"/>
<path fill-rule="evenodd" clip-rule="evenodd" d="M4.88281 10.0586C4.88281 10.5979 5.32003 11.0352 5.85938 11.0352H19.1406C19.68 11.0352 20.1172 10.5979 20.1172 10.0586C20.1172 9.51925 19.68 9.08203 19.1406 9.08203H5.85938C5.32003 9.08203 4.88281 9.51925 4.88281 10.0586Z" fill="#090525"/>
<path fill-rule="evenodd" clip-rule="evenodd" d="M4.88281 13.9648C4.88281 14.5042 5.32003 14.9414 5.85937 14.9414H9.375C9.91434 14.9414 10.3516 14.5042 10.3516 13.9648C10.3516 13.4255 9.91434 12.9883 9.375 12.9883H5.85937C5.32003 12.9883 4.88281 13.4255 4.88281 13.9648Z" fill="#090525"/>
<path d="M4.88281 6.05469C4.88281 6.72886 5.42935 7.27539 6.10352 7.27539C6.77769 7.27539 7.32422 6.72886 7.32422 6.05469C7.32422 5.38047 6.77769 4.83398 6.10352 4.83398C5.42935 4.83398 4.88281 5.38047 4.88281 6.05469Z" fill="#090525"/>
<path fill-rule="evenodd" clip-rule="evenodd" d="M22.575 22.5749C21.9457 23.2042 20.9255 23.2042 20.2962 22.5749L16.8729 19.1516C16.8729 19.1516 16.8729 19.1517 16.8729 19.1516C16.1595 18.4382 15.6733 17.5295 15.4755 16.5403C15.4755 16.5403 15.4755 16.5403 15.4755 16.5403L15.2095 15.2095L16.5402 15.4755L16.5403 15.4755C17.5296 15.6732 18.4383 16.1594 19.1516 16.8729L22.575 20.2962C23.2042 20.9254 23.2042 21.9456 22.575 22.5749ZM18.9151 23.956C20.3072 25.348 22.564 25.348 23.956 23.956C25.348 22.564 25.348 20.3071 23.956 18.9151L20.5328 15.4918C20.5328 15.4918 20.5328 15.4918 20.5328 15.4918C19.5466 14.5057 18.2906 13.8336 16.923 13.5603L14.1563 13.0072C13.8361 12.9432 13.5052 13.0434 13.2743 13.2743C13.0435 13.5051 12.9432 13.8361 13.0072 14.1562L13.5603 16.9231C13.8336 18.2906 14.5058 19.5465 15.4918 20.5327L18.9151 23.956Z" fill="#090525"/>
</svg>
