<svg width="550" height="725" viewBox="0 0 550 725" fill="none" xmlns="http://www.w3.org/2000/svg">
<mask id="mask0_2067_36385" style="mask-type:alpha" maskUnits="userSpaceOnUse" x="0" y="0" width="550" height="725">
<path d="M0 24C0 10.7452 10.7452 0 24 0H550V725H24C10.7452 725 0 714.255 0 701V24Z" fill="#C6E2DF"/>
</mask>
<g mask="url(#mask0_2067_36385)">
<path fill-rule="evenodd" clip-rule="evenodd" d="M63.5 -17C12.4137 -17 -29 24.4137 -29 75.5C-29 126.586 12.4137 168 63.5 168C114.586 168 156 126.586 156 75.5C156 24.4137 114.586 -17 63.5 -17ZM-209 75.5C-209 -74.9976 -86.9976 -197 63.5 -197C213.998 -197 336 -74.9976 336 75.5C336 225.998 213.998 348 63.5 348C-86.9976 348 -209 225.998 -209 75.5Z" fill="url(#paint0_linear_2067_36385)" fill-opacity="0.2"/>
<path fill-rule="evenodd" clip-rule="evenodd" d="M511 634C477.863 634 451 660.863 451 694C451 727.137 477.863 754 511 754C544.137 754 571 727.137 571 694C571 660.863 544.137 634 511 634ZM271 694C271 561.452 378.452 454 511 454C643.548 454 751 561.452 751 694C751 826.548 643.548 934 511 934C378.452 934 271 826.548 271 694Z" fill="url(#paint1_linear_2067_36385)" fill-opacity="0.2"/>
</g>
<defs>
<linearGradient id="paint0_linear_2067_36385" x1="218" y1="291.5" x2="-0.500006" y2="-2.49999" gradientUnits="userSpaceOnUse">
<stop stop-color="white"/>
<stop offset="1" stop-color="white" stop-opacity="0"/>
</linearGradient>
<linearGradient id="paint1_linear_2067_36385" x1="361" y1="496" x2="601" y2="844" gradientUnits="userSpaceOnUse">
<stop stop-color="white"/>
<stop offset="1" stop-color="white" stop-opacity="0"/>
</linearGradient>
</defs>
</svg>
