<svg width="21" height="20" viewBox="0 0 21 20" fill="none" xmlns="http://www.w3.org/2000/svg">
<path d="M14.6909 2.9165H6.35758C3.85758 2.9165 2.19092 4.1665 2.19092 7.08317V12.9165C2.19092 15.8332 3.85758 17.0832 6.35758 17.0832H14.6909C17.1909 17.0832 18.8576 15.8332 18.8576 12.9165V7.08317C18.8576 4.1665 17.1909 2.9165 14.6909 2.9165ZM15.0826 7.9915L12.4743 10.0748C11.9243 10.5165 11.2243 10.7332 10.5243 10.7332C9.82425 10.7332 9.11592 10.5165 8.57425 10.0748L5.96592 7.9915C5.69925 7.77484 5.65758 7.37484 5.86592 7.10817C6.08258 6.8415 6.47425 6.7915 6.74092 7.00817L9.34925 9.0915C9.98258 9.59984 11.0576 9.59984 11.6909 9.0915L14.2993 7.00817C14.5659 6.7915 14.9659 6.83317 15.1743 7.10817C15.3909 7.37484 15.3493 7.77484 15.0826 7.9915Z" fill="#27A59A"/>
</svg>
