<svg width="32" height="32" viewBox="0 0 32 32" fill="none" xmlns="http://www.w3.org/2000/svg">
<path d="M15.9995 4.79987C9.81392 4.79987 4.79924 9.8143 4.79924 16.0001C4.79924 22.186 9.81392 27.2004 15.9995 27.2004C22.1853 27.2004 27.2 22.186 27.2 16.0001C27.1927 9.81723 22.1824 4.80695 15.9995 4.79987ZM15.9995 25.6003C10.6975 25.6003 6.39935 21.3022 6.39935 16.0001C6.39935 10.6981 10.6975 6.39997 15.9995 6.39997C21.3015 6.39997 25.5999 10.6981 25.5999 16.0001C25.5941 21.2997 21.2993 25.5947 15.9995 25.6003Z" fill="black"/>
<path d="M21.7198 13.4872L18.2732 12.9601L16.7231 9.66005C16.4971 9.26039 15.99 9.11976 15.5903 9.34584C15.459 9.42006 15.3506 9.5287 15.2761 9.66005L13.7263 12.9601L10.2793 13.4875C9.84298 13.5529 9.54244 13.9596 9.60787 14.3959C9.63301 14.5624 9.70992 14.7167 9.82784 14.8368L12.3449 17.4172L11.7497 21.0713C11.6787 21.5075 11.9746 21.9187 12.4106 21.9897C12.5876 22.0185 12.7693 21.987 12.9262 21.9001L15.9998 20.2009L19.0733 21.9001C19.46 22.1137 19.9468 21.9736 20.1607 21.5869C20.2473 21.4299 20.2788 21.2483 20.25 21.0713L19.6548 17.4172L22.1719 14.8366C22.4808 14.5219 22.4761 14.0163 22.1612 13.7072C22.0411 13.5893 21.8868 13.5124 21.7202 13.4875H21.7198V13.4872ZM18.2278 16.589C18.0503 16.7704 17.9695 17.0258 18.0108 17.2766L18.406 19.7033L16.3872 18.5869C16.146 18.4536 15.8533 18.4536 15.6123 18.5869L13.5935 19.7033L13.9888 17.2766C14.03 17.0258 13.9492 16.7707 13.7715 16.589L12.0591 14.8334L14.3887 14.4772C14.6526 14.4374 14.8789 14.2682 14.9919 14.0265L15.9998 11.882L17.0078 14.0265C17.1206 14.2682 17.3469 14.4374 17.6108 14.4772L19.9407 14.8334L18.2278 16.589Z" fill="black"/>
<path d="M30.5765 16.5749C30.3531 16.2245 30.3531 15.7763 30.5765 15.4257L31.5782 13.8639C32.3719 12.6244 32.0108 10.9759 30.7711 10.1822C30.7025 10.1383 30.6317 10.0973 30.5594 10.0599L28.9115 9.20836C28.5435 9.01646 28.3194 8.62925 28.3363 8.21445L28.4239 6.36068C28.4581 5.61165 28.1756 4.88289 27.6456 4.35261C27.1114 3.82942 26.3861 3.54865 25.639 3.57575L23.7857 3.66169C23.3709 3.68147 22.9825 3.45759 22.7918 3.08869L21.9402 1.44049C21.2632 0.133104 19.6548 -0.377886 18.3474 0.29912C18.2749 0.336718 18.2044 0.37749 18.1358 0.421436L16.5747 1.42144C16.2244 1.64581 15.7754 1.6463 15.4246 1.42217L13.8635 0.421436C12.6242 -0.372515 10.9758 -0.0114285 10.1818 1.22784C10.1374 1.29717 10.0964 1.36822 10.0588 1.44122L9.20748 3.08869C9.01094 3.45197 8.62642 3.67365 8.21357 3.66218L6.36029 3.576C5.61322 3.54743 4.88738 3.82844 4.35418 4.35237C3.82414 4.88289 3.54167 5.6119 3.57585 6.36117L3.6635 8.21299C3.68059 8.62803 3.45671 9.01573 3.0883 9.20787L1.44034 10.0597C0.133201 10.7367 -0.377789 12.3456 0.299218 13.653C0.336815 13.7252 0.377587 13.7958 0.421533 13.8644L1.42325 15.4245C1.64664 15.7751 1.64664 16.2233 1.42325 16.5736L0.421044 18.1361C-0.372662 19.3757 -0.0113313 21.0241 1.22818 21.8178C1.29703 21.8618 1.36758 21.9028 1.43985 21.9401L3.0883 22.7915C3.45622 22.9833 3.6801 23.3706 3.6635 23.7851L3.57585 25.6389C3.50773 27.1089 4.64422 28.3555 6.11395 28.4233C6.19598 28.4272 6.27802 28.4272 6.36005 28.4233L8.21309 28.3376C8.62691 28.3227 9.0129 28.5454 9.20699 28.9109L10.0586 30.5593C10.7353 31.8667 12.3437 32.3779 13.6511 31.7009C13.7239 31.6633 13.7947 31.6223 13.8638 31.5781L15.4248 30.5781C15.7751 30.3538 16.2241 30.3533 16.575 30.5774L18.1358 31.5781C19.375 32.3721 21.0235 32.0112 21.8174 30.772C21.8616 30.7026 21.9029 30.6316 21.9405 30.5586L22.792 28.9106C22.9942 28.5527 23.375 28.333 23.7859 28.3371L25.639 28.4231C27.109 28.491 28.3553 27.3545 28.4232 25.8847C28.4271 25.8025 28.4271 25.7199 28.4232 25.6379L28.3363 23.7866C28.3189 23.3713 28.5428 22.9836 28.9112 22.7912L30.5592 21.9394C31.8666 21.2624 32.3775 19.6537 31.7003 18.3464C31.6629 18.2741 31.6219 18.2033 31.578 18.1347L30.5765 16.5749ZM29.2296 17.4381L30.2313 18.9982C30.5484 19.4943 30.4034 20.1533 29.9073 20.4701C29.8807 20.4872 29.8531 20.5031 29.825 20.5178L28.1766 21.3693C27.2537 21.8493 26.6932 22.821 26.7391 23.8601L26.8265 25.7124C26.8411 26.0122 26.7274 26.3039 26.514 26.5149C26.3065 26.7317 26.0135 26.8452 25.7139 26.8252L23.8609 26.739C22.8233 26.6997 21.855 27.2585 21.3702 28.1765L20.5183 29.8237C20.3821 30.0911 20.1382 30.2876 19.8482 30.3635C19.5589 30.4412 19.2503 30.3933 18.9981 30.2314L17.4373 29.2307C16.5603 28.6714 15.4387 28.6714 14.562 29.2307L13.0012 30.2314C12.749 30.3928 12.4404 30.4409 12.1511 30.3635C11.8611 30.2876 11.6174 30.0915 11.4809 29.8245L10.6291 28.1765C10.1508 27.2522 9.17818 26.6909 8.13838 26.739L6.28534 26.8249C5.98529 26.8489 5.69061 26.7346 5.48529 26.5149C5.27191 26.3039 5.15838 26.0127 5.17278 25.7131L5.26019 23.8584C5.30584 22.8198 4.74505 21.8488 3.82268 21.3693L2.17423 20.518C1.65201 20.2465 1.44888 19.6034 1.72037 19.0815C1.73502 19.0534 1.75089 19.0258 1.76798 18.9992L2.76969 17.4374C3.32878 16.5605 3.32878 15.4386 2.76969 14.5617L1.76798 13.0016C1.45084 12.5055 1.5961 11.8466 2.09195 11.5294C2.11857 11.5123 2.14615 11.4965 2.17423 11.4818L3.82268 10.6302C4.74554 10.1503 5.30633 9.17882 5.26019 8.1395L5.17278 6.2872C5.15838 5.98763 5.27191 5.69588 5.48529 5.4847C5.68988 5.26375 5.98505 5.14925 6.28534 5.17464L8.13862 5.26058C9.17745 5.30574 10.1486 4.74495 10.6294 3.82282L11.4809 2.1756C11.7507 1.65313 12.3928 1.4483 12.9153 1.71832C12.9446 1.73346 12.9731 1.74981 13.001 1.76764L14.562 2.76837C15.4387 3.32795 16.5603 3.32795 17.437 2.76837L18.9981 1.76764C19.4934 1.45049 20.1521 1.59503 20.4693 2.09039C20.4868 2.11774 20.5032 2.14581 20.5181 2.17486L21.3697 3.82282C21.846 4.7491 22.8201 5.31136 23.8604 5.26033L25.7137 5.1744C26.0133 5.1534 26.3067 5.26693 26.5137 5.48446C26.7269 5.69515 26.8406 5.98666 26.8262 6.28598L26.7388 8.14097C26.6932 9.17955 27.254 10.1505 28.1763 10.63L29.8248 11.4816C30.3468 11.7531 30.5499 12.3961 30.2787 12.9181C30.264 12.9462 30.2481 12.9738 30.2311 13.0006L29.2293 14.5622C28.6698 15.4394 28.67 16.5612 29.2296 17.4381Z" fill="black"/>
</svg>
