<svg width="28" height="26" viewBox="0 0 28 26" fill="none" xmlns="http://www.w3.org/2000/svg">
<path d="M14.0001 0L18.9371 7.21557L27.3334 9.67677L21.9886 16.5972L22.2398 25.3334L14.0001 22.3948L5.76035 25.3334L6.01153 16.5972L0.666748 9.67677L9.06302 7.21557L14.0001 0ZM14.0001 4.13586L10.521 9.22167L4.60378 10.9547L8.37142 15.8304L8.19262 21.9864L14.0001 19.9161L19.8063 21.9864L19.6287 15.8304L23.3952 10.9547L17.4791 9.22167L14.0001 4.13586ZM11.6635 13.4206C11.6635 14.0396 11.9097 14.6333 12.3479 15.071C12.7861 15.5087 13.3804 15.7546 14.0001 15.7546C14.6197 15.7546 15.214 15.5087 15.6522 15.071C16.0904 14.6333 16.3366 14.0396 16.3366 13.4206H18.6731C18.6731 14.6586 18.1808 15.8459 17.3044 16.7214C16.428 17.5968 15.2394 18.0886 14.0001 18.0886C12.7607 18.0886 11.5721 17.5968 10.6957 16.7214C9.81942 15.8459 9.32702 14.6586 9.32702 13.4206H11.6635Z" fill="white"/>
</svg>
