<svg width="39" height="32" viewBox="0 0 39 32" fill="none" xmlns="http://www.w3.org/2000/svg">
<path d="M27.1287 20.5105C26.9793 20.5112 26.8346 20.4589 26.7202 20.3628L21.9663 16.5127C21.8915 16.4507 21.8314 16.373 21.79 16.2852C21.7487 16.1973 21.7273 16.1014 21.7273 16.0043V5.35793C21.7273 5.18506 21.796 5.01927 21.9182 4.89703C22.0404 4.77479 22.2062 4.70612 22.3791 4.70612C22.552 4.70612 22.7178 4.77479 22.84 4.89703C22.9623 5.01927 23.0309 5.18506 23.0309 5.35793V15.6958L27.5415 19.3503C27.6488 19.4361 27.7262 19.5537 27.7627 19.6861C27.7992 19.8186 27.7929 19.9592 27.7447 20.0879C27.6965 20.2166 27.6089 20.3267 27.4944 20.4026C27.3798 20.4785 27.2442 20.5163 27.107 20.5105H27.1287Z" fill="black"/>
<path d="M15.8348 23.1221H8.5649C8.39203 23.1221 8.22624 23.0534 8.104 22.9312C7.98176 22.809 7.91309 22.6432 7.91309 22.4703C7.91309 22.2974 7.98176 22.1316 8.104 22.0094C8.22624 21.8872 8.39203 21.8185 8.5649 21.8185H15.8348C16.0077 21.8185 16.1735 21.8872 16.2957 22.0094C16.418 22.1316 16.4867 22.2974 16.4867 22.4703C16.4867 22.6432 16.418 22.809 16.2957 22.9312C16.1735 23.0534 16.0077 23.1221 15.8348 23.1221Z" fill="black"/>
<path d="M12.8843 16.126H0.651818C0.478945 16.126 0.313153 16.0573 0.190913 15.935C0.0686735 15.8128 0 15.647 0 15.4741C0 15.3013 0.0686735 15.1355 0.190913 15.0132C0.313153 14.891 0.478945 14.8223 0.651818 14.8223H12.8843C13.0571 14.8223 13.2229 14.891 13.3452 15.0132C13.4674 15.1355 13.5361 15.3013 13.5361 15.4741C13.5361 15.647 13.4674 15.8128 13.3452 15.935C13.2229 16.0573 13.0571 16.126 12.8843 16.126Z" fill="black"/>
<path d="M8.2303 9.05156H3.88485C3.71198 9.05156 3.54619 8.98289 3.42395 8.86065C3.30171 8.73841 3.23303 8.57262 3.23303 8.39974C3.23303 8.22687 3.30171 8.06108 3.42395 7.93884C3.54619 7.8166 3.71198 7.74792 3.88485 7.74792H8.2303C8.40317 7.74792 8.56897 7.8166 8.69121 7.93884C8.81345 8.06108 8.88212 8.22687 8.88212 8.39974C8.88212 8.57262 8.81345 8.73841 8.69121 8.86065C8.56897 8.98289 8.40317 9.05156 8.2303 9.05156Z" fill="black"/>
<path d="M22.3791 28.3888C22.2062 28.3888 22.0404 28.3202 21.9182 28.1979C21.796 28.0757 21.7273 27.9099 21.7273 27.737V27.6067C21.7273 27.4338 21.796 27.268 21.9182 27.1457C22.0404 27.0235 22.2062 26.9548 22.3791 26.9548C22.552 26.9548 22.7178 27.0235 22.84 27.1457C22.9623 27.268 23.0309 27.4338 23.0309 27.6067V27.737C23.0309 27.9099 22.9623 28.0757 22.84 28.1979C22.7178 28.3202 22.552 28.3888 22.3791 28.3888Z" fill="black"/>
<path d="M34.5203 16.6561H34.3899C34.217 16.6561 34.0513 16.5874 33.929 16.4652C33.8068 16.343 33.7381 16.1772 33.7381 16.0043C33.7381 15.8314 33.8068 15.6656 33.929 15.5434C34.0513 15.4212 34.217 15.3525 34.3899 15.3525H34.5203C34.6932 15.3525 34.8589 15.4212 34.9812 15.5434C35.1034 15.6656 35.1721 15.8314 35.1721 16.0043C35.1721 16.1772 35.1034 16.343 34.9812 16.4652C34.8589 16.5874 34.6932 16.6561 34.5203 16.6561Z" fill="black"/>
<path d="M7.17869 18.768C7.02177 18.7684 6.87005 18.7117 6.75175 18.6086C6.63345 18.5055 6.55663 18.3629 6.53557 18.2074C6.43534 17.4774 6.38742 16.7412 6.39217 16.0043C6.39217 15.8314 6.46084 15.6656 6.58308 15.5434C6.70532 15.4212 6.87111 15.3525 7.04398 15.3525C7.21686 15.3525 7.38265 15.4212 7.50489 15.5434C7.62713 15.6656 7.6958 15.8314 7.6958 16.0043C7.69588 16.6802 7.74234 17.3554 7.83486 18.0249C7.84639 18.111 7.84062 18.1984 7.8179 18.2822C7.79517 18.366 7.75594 18.4444 7.70251 18.5128C7.64908 18.5812 7.58253 18.6382 7.50676 18.6805C7.43098 18.7229 7.34752 18.7497 7.26126 18.7593L7.17869 18.768Z" fill="black"/>
<path d="M22.3791 31.9999C20.2292 32.0075 18.1003 31.578 16.1215 30.7377C14.1427 29.8973 12.3554 28.6635 10.868 27.1113C10.7688 26.9838 10.7205 26.824 10.7324 26.6629C10.7444 26.5018 10.8157 26.3509 10.9326 26.2394C11.0495 26.1279 11.2036 26.0638 11.3651 26.0595C11.5266 26.0552 11.6839 26.111 11.8066 26.2161C13.1729 27.6409 14.8147 28.7728 16.6323 29.543C18.4498 30.3132 20.4051 30.7056 22.3791 30.6963C24.9977 30.6955 27.5685 29.9949 29.8255 28.667C32.0824 27.339 33.9434 25.432 35.2158 23.1433C36.4882 20.8546 37.1258 18.2674 37.0626 15.6495C36.9994 13.0317 36.2376 10.4783 34.8562 8.25369C33.4748 6.02909 31.5239 4.21413 29.2054 2.99669C26.887 1.77925 24.2854 1.20358 21.6698 1.32926C19.0541 1.45495 16.5197 2.27742 14.3287 3.71154C12.1377 5.14567 10.3698 7.13932 9.20801 9.48612C9.13079 9.64113 8.99516 9.75912 8.83095 9.81413C8.66674 9.86913 8.48741 9.85666 8.3324 9.77944C8.17739 9.70222 8.05941 9.56659 8.0044 9.40238C7.94939 9.23818 7.96187 9.05884 8.03908 8.90383C9.304 6.34761 11.2292 4.17596 13.6154 2.61374C16.0015 1.05151 18.7619 0.155503 21.6107 0.0184793C24.4594 -0.118544 27.2931 0.508399 29.8181 1.8344C32.3432 3.16039 34.468 5.13724 35.9724 7.56026C37.4768 9.98328 38.3062 12.7644 38.3747 15.6156C38.4432 18.4669 37.7483 21.2846 36.362 23.7771C34.9757 26.2696 32.9483 28.3462 30.4899 29.7919C28.0314 31.2376 25.2311 32 22.3791 31.9999Z" fill="black"/>
<path d="M4.88866 23.1221H3.70235C3.52948 23.1221 3.36369 23.0534 3.24145 22.9312C3.11921 22.809 3.05054 22.6432 3.05054 22.4703C3.05054 22.2974 3.11921 22.1316 3.24145 22.0094C3.36369 21.8872 3.52948 21.8185 3.70235 21.8185H4.88866C5.06154 21.8185 5.22733 21.8872 5.34957 22.0094C5.47181 22.1316 5.54048 22.2974 5.54048 22.4703C5.54048 22.6432 5.47181 22.809 5.34957 22.9312C5.22733 23.0534 5.06154 23.1221 4.88866 23.1221Z" fill="black"/>
<path d="M7.774 11.7371C7.66424 11.7358 7.55656 11.707 7.46082 11.6533C7.36507 11.5997 7.28432 11.5228 7.22595 11.4299C7.16759 11.3369 7.13347 11.2308 7.12673 11.1213C7.11999 11.0117 7.14083 10.9022 7.18736 10.8028L8.09122 8.91254C8.12802 8.83522 8.1797 8.7659 8.24329 8.70855C8.30689 8.6512 8.38116 8.60693 8.46186 8.57828C8.54256 8.54964 8.62812 8.53716 8.71364 8.54158C8.79917 8.54599 8.88298 8.56721 8.96031 8.60402C9.03763 8.64082 9.10695 8.6925 9.1643 8.7561C9.22165 8.81969 9.26591 8.89396 9.29456 8.97466C9.32321 9.05537 9.33569 9.14092 9.33127 9.22644C9.32686 9.31197 9.30564 9.39578 9.26883 9.47311L8.36498 11.3677C8.31111 11.4786 8.2271 11.572 8.12258 11.6373C8.01806 11.7027 7.89725 11.7372 7.774 11.7371Z" fill="black"/>
</svg>
