<svg width="16" height="18" viewBox="0 0 16 18" fill="none" xmlns="http://www.w3.org/2000/svg">
<path d="M8.5278 10.7202V12.3168C7.83643 12.0723 7.09649 11.9973 6.37013 12.0981C5.64377 12.1989 4.95219 12.4725 4.35348 12.8959C3.75477 13.3194 3.2664 13.8803 2.92939 14.5316C2.59237 15.1829 2.41655 15.9055 2.41669 16.6388L0.888916 16.6381C0.888679 15.7053 1.10198 14.7848 1.51248 13.9472C1.92297 13.1096 2.51977 12.377 3.25714 11.8057C3.9945 11.2344 4.85287 10.8395 5.76646 10.6512C6.68006 10.4629 7.62463 10.4863 8.5278 10.7195V10.7202ZM7.00003 9.76383C4.46774 9.76383 2.41669 7.71279 2.41669 5.1805C2.41669 2.64821 4.46774 0.597168 7.00003 0.597168C9.53232 0.597168 11.5834 2.64821 11.5834 5.1805C11.5834 7.71279 9.53232 9.76383 7.00003 9.76383ZM7.00003 8.23606C8.68822 8.23606 10.0556 6.8687 10.0556 5.1805C10.0556 3.49231 8.68822 2.12495 7.00003 2.12495C5.31183 2.12495 3.94447 3.49231 3.94447 5.1805C3.94447 6.8687 5.31183 8.23606 7.00003 8.23606ZM11.5834 12.8194V10.1458L15.4028 13.5833L11.5834 17.0208V14.3472H9.29169V12.8194H11.5834Z" fill="white"/>
</svg>
