<svg width="28" height="26" viewBox="0 0 28 26" fill="none" xmlns="http://www.w3.org/2000/svg">
<path fill-rule="evenodd" clip-rule="evenodd" d="M27.0875 2.03516C27.176 1.45239 26.9277 0.868397 26.447 0.525376C25.9663 0.183584 25.3331 0.140553 24.8106 0.414724C20.6291 2.61055 6.00219 10.2898 1.50972 12.6479C0.955235 12.9381 0.628197 13.5307 0.676146 14.154C0.724096 14.7773 1.1372 15.3134 1.7298 15.5162C3.47933 16.115 5.61737 16.849 8.97012 17.9985L22.4942 5.3584L11.5495 18.8825C15.1248 20.1083 20.7152 22.025 22.118 22.5058C22.5569 22.657 23.0414 22.6041 23.4385 22.3644C23.8356 22.1234 24.1048 21.7189 24.1749 21.2591L27.0875 2.03516Z" fill="white"/>
<path fill-rule="evenodd" clip-rule="evenodd" d="M9.99304 19.6486V23.6689C9.99304 24.2861 10.3557 24.8455 10.9176 25.0976C11.4807 25.3508 12.1385 25.25 12.5995 24.8394L16.0887 21.7387L9.99304 19.6486Z" fill="white"/>
</svg>
